<?xml version="1.0" standalone="no"?>
<!DOCTYPE svg PUBLIC "-//W3C//DTD SVG 1.1//EN" "http://www.w3.org/Graphics/SVG/1.1/DTD/svg11.dtd" >
<svg xmlns="http://www.w3.org/2000/svg">
<metadata></metadata>
<defs>
<font id="nokia_pure_textlight" horiz-adv-x="1272" >
<font-face units-per-em="2048" ascent="1579" descent="-469" />
<missing-glyph horiz-adv-x="543" />
<glyph unicode="&#xfb03;" horiz-adv-x="1941" d="M74 954v113h210v115q0 99 18 181t62 141t114 91.5t174 32.5q56 0 102 -7.5t69 -14.5l-17 -104q-16 4 -52 8t-73 4q-79 0 -130.5 -19.5t-82.5 -62.5t-43 -110.5t-12 -166.5v-88h541v115q0 99 18.5 181t61.5 141t113 91.5t171 32.5q53 0 98 -7.5t70 -14.5l-17 -104 q-17 4 -51.5 8t-69.5 4q-78 0 -128 -19.5t-81 -62.5t-43 -110.5t-12 -166.5v-88h677v-1067h-129v954h-548v-954h-130v954h-541v-954h-129v954h-210zM1598 1424q0 47 27 76t70 29t70.5 -29t27.5 -76q0 -50 -27.5 -78t-70.5 -28t-70 29.5t-27 76.5z" />
<glyph unicode="&#xfb04;" horiz-adv-x="1949" d="M74 954v113h210v115q0 99 18 181t62 141t114 91.5t174 32.5q56 0 102 -7.5t69 -14.5l-17 -104q-16 4 -52 8t-73 4q-79 0 -130.5 -19.5t-82.5 -62.5t-43 -110.5t-12 -166.5v-88h541v115q0 99 18.5 181t61.5 141t113 91.5t171 32.5q53 0 98 -7.5t70 -14.5l-17 -104 q-17 4 -51.5 8t-69.5 4q-78 0 -128 -19.5t-81 -62.5t-43 -110.5t-12 -166.5v-88h329v-113h-329v-954h-130v954h-541v-954h-129v954h-210zM1650 0v1613h127v-1613h-127z" />
<glyph unicode="&#xd;" horiz-adv-x="543" />
<glyph horiz-adv-x="0" />
<glyph horiz-adv-x="0" />
<glyph unicode=" "  horiz-adv-x="543" />
<glyph unicode="&#x09;" horiz-adv-x="543" />
<glyph unicode="&#xa0;" horiz-adv-x="543" />
<glyph unicode="!" horiz-adv-x="601" d="M195 94q0 52 30.5 83.5t75.5 31.5t75 -30.5t30 -84.5q0 -51 -30 -82t-75 -31t-75.5 31t-30.5 82zM234 426v1086h129v-1086h-129z" />
<glyph unicode="&#x22;" horiz-adv-x="872" d="M181 1512h141l-16 -538h-111zM551 1512h141l-16 -538h-111z" />
<glyph unicode="#" horiz-adv-x="1246" d="M51 421l20 106h210l91 458h-234l20 105h236l80 394h113l-80 -394h366l79 394h115l-80 -394h209l-20 -105h-210l-90 -458h234l-20 -106h-234l-82 -421h-114l84 421h-370l-81 -421h-115l82 421h-209zM396 527h367l89 458h-366z" />
<glyph unicode="$" d="M138 119l55 105q26 -17 65 -37.5t90.5 -40t114 -33.5t137.5 -16v609q-89 32 -162 64t-127.5 75t-85 104.5t-30.5 151.5q0 177 104.5 280t300.5 121v197h101v-197q60 0 120.5 -12.5t112 -28.5t91.5 -35.5t61 -34.5l-52 -105q-53 35 -141.5 66t-191.5 35v-579l73 -26 q157 -55 244.5 -144.5t87.5 -239.5q0 -166 -100.5 -278t-304.5 -135v-219h-101v215q-93 2 -167 17t-131 36.5t-97.5 44t-66.5 40.5zM327 1110q0 -103 62.5 -160.5t210.5 -108.5v546q-142 -17 -207.5 -85.5t-65.5 -191.5zM701 101q123 12 198 82.5t75 206.5q0 118 -67.5 178 t-205.5 105v-572z" />
<glyph unicode="%" horiz-adv-x="1928" d="M133 1079q0 209 82 321t232 112q155 0 231.5 -112t76.5 -321q0 -215 -81 -321t-229 -106q-312 0 -312 427zM245 1079q0 -178 53 -252t147 -74q95 0 145 74t50 252q0 95 -12.5 158.5t-38 102.5t-62.5 54.5t-82 15.5q-43 0 -79.5 -15.5t-63.5 -54.5t-42 -102.5t-15 -158.5z M497 0l808 1484h125l-806 -1484h-127zM1174 402q0 209 82 320t232 111q154 0 231 -111t77 -320q0 -215 -82 -322.5t-226 -107.5q-314 0 -314 430zM1288 402q0 -180 51.5 -254t148.5 -74q92 0 144 75t52 253q0 187 -52 258t-144 71q-45 0 -81.5 -16t-62.5 -53.5t-41 -101 t-15 -158.5z" />
<glyph unicode="&#x26;" horiz-adv-x="1481" d="M142 392q0 168 92.5 274t253.5 179q-26 31 -54 68t-52.5 80t-41 92.5t-16.5 104.5q0 77 26 142.5t75 112.5t116.5 74.5t153.5 27.5q74 0 135.5 -22.5t108 -63.5t72 -101.5t25.5 -134.5q0 -79 -26.5 -139t-75 -107.5t-116 -86t-147.5 -77.5l437 -512q26 21 54 56t54.5 76 t50 82.5t40.5 77.5l101 -51q-43 -92 -99.5 -177.5t-124.5 -151.5l184 -215h-159l-117 140q-82 -70 -203 -119t-263 -49q-121 0 -211.5 31.5t-151 87t-91 133t-30.5 168.5zM273 398q0 -154 92.5 -233t266.5 -79q58 0 113 11.5t105.5 32t92.5 45.5t72 51l-456 533 q-58 -24 -110.5 -56t-91.5 -75t-61.5 -100t-22.5 -130zM447 1186q0 -81 48.5 -154t104.5 -135q59 28 116.5 57t101.5 65.5t71 85t27 116.5q0 105 -61 162.5t-165 57.5q-117 0 -180 -72t-63 -183z" />
<glyph unicode="'" horiz-adv-x="502" d="M181 1512h141l-16 -538h-111z" />
<glyph unicode="(" horiz-adv-x="605" d="M168 704q0 168 22.5 311.5t54.5 259.5t69 202t64 136h114q-32 -66 -67 -160t-64.5 -209t-47.5 -251.5t-18 -288.5q0 -153 18 -290t47.5 -253t64.5 -209.5t67 -158.5h-114q-28 49 -64.5 135.5t-68.5 203t-54.5 260.5t-22.5 312z" />
<glyph unicode=")" horiz-adv-x="603" d="M117 -207q32 66 66 159t63 209t47.5 252.5t18.5 290.5q0 152 -18.5 288.5t-47.5 252.5t-63.5 210t-65.5 158h111q28 -50 64.5 -136t70 -202t56 -260.5t22.5 -310.5q0 -168 -22.5 -312t-56 -260.5t-70 -203t-64.5 -135.5h-111z" />
<glyph unicode="*" horiz-adv-x="909" d="M90 1297l45 113l278 -117l-15 320h123l-12 -320l279 129l39 -115l-287 -103l215 -252l-97 -70l-198 267l-195 -267l-97 75l208 245z" />
<glyph unicode="+" d="M162 684v116h414v445h121v-445h415v-116h-415v-446h-121v446h-414z" />
<glyph unicode="," horiz-adv-x="546" d="M97 -297q62 69 98.5 142t44.5 140q-28 7 -53 31.5t-25 73.5q0 56 31 87.5t74 31.5q51 0 78 -34.5t27 -90.5q0 -97 -51.5 -214.5t-160.5 -220.5z" />
<glyph unicode="-" horiz-adv-x="907" d="M144 542v123h617v-123h-617z" />
<glyph unicode="." horiz-adv-x="539" d="M166 92q0 52 30 84.5t75 32.5t75 -31.5t30 -85.5q0 -51 -31 -81t-76 -30t-74 30t-29 81z" />
<glyph unicode="/" horiz-adv-x="891" d="M49 -101l671 1714h123l-671 -1714h-123z" />
<glyph unicode="0" d="M131 737q0 383 127 576t380 193q261 0 382 -193t121 -576q0 -387 -127.5 -576t-375.5 -189q-507 0 -507 765zM267 737q0 -174 24.5 -297.5t72 -200.5t116 -113t156.5 -36t157 37t116.5 115t72 201t24.5 294q0 179 -26 302.5t-73 200t-116 111t-155 34.5t-154.5 -34.5 t-116 -111t-73 -200t-25.5 -302.5z" />
<glyph unicode="1" d="M222 1180l484 304h111v-1484h-131v1331l-413 -249z" />
<glyph unicode="2" d="M195 1301q27 33 64.5 68t90 66.5t120.5 51t152 19.5q109 0 185.5 -32.5t125 -85t71 -121.5t22.5 -140q0 -80 -28 -146.5t-74 -124.5t-106.5 -108.5t-122.5 -98.5q-84 -66 -149.5 -125.5t-110.5 -121.5t-69 -130.5t-24 -152.5h709v-119h-844v37q0 116 23.5 206t72 169.5 t121.5 151.5t171 150q72 58 127.5 105t93.5 94.5t58.5 96t20.5 110.5q0 117 -68 192t-220 75q-64 0 -115 -15t-92 -38t-70 -50.5t-51 -56.5z" />
<glyph unicode="3" d="M178 35l31 107q37 -15 114 -31.5t182 -16.5q176 0 281.5 78t105.5 232q0 64 -22.5 118t-67.5 94t-115 62.5t-164 22.5h-117v116h111q90 0 156.5 23.5t108 63.5t62 93.5t20.5 116.5q0 58 -15.5 107t-51.5 87t-93 59.5t-136 21.5q-119 0 -192 -39t-114 -80l-69 80 q21 24 56 52t83 50.5t108.5 38t133.5 15.5q110 0 189.5 -30.5t130 -82t75 -118t24.5 -140.5q0 -142 -73 -237.5t-204 -129.5q154 -31 230 -125.5t76 -236.5q0 -103 -39 -183.5t-107 -135t-160 -83t-199 -28.5q-117 0 -206 19.5t-133 39.5z" />
<glyph unicode="4" d="M150 363v91l556 1030h139l-539 -1004h466v441h127v-441h236v-117h-236v-363h-127v363h-622z" />
<glyph unicode="5" d="M217 35l31 107q37 -15 114 -31.5t182 -16.5q183 0 287.5 93.5t104.5 276.5q0 69 -16.5 131.5t-52.5 109t-95.5 73t-145.5 26.5q-97 0 -160.5 -20.5t-102.5 -41.5l-70 52l81 683h643v-118h-549l-60 -491q37 19 101.5 31t135.5 12q90 0 167.5 -26.5t134.5 -82t88.5 -139.5 t31.5 -197q0 -101 -34.5 -190t-100.5 -155.5t-161.5 -105.5t-218.5 -39q-116 0 -204 19.5t-131 39.5z" />
<glyph unicode="6" d="M197 640q0 429 150 650.5t427 221.5q92 0 163.5 -19.5t131.5 -49.5l-43 -103q-47 24 -106.5 41t-149.5 17q-105 0 -185 -47.5t-133.5 -130.5t-82.5 -196t-34 -244q53 80 147 135t217 55q91 0 169 -30.5t137.5 -91t92.5 -151t33 -209.5q0 -116 -32 -211.5t-92.5 -163.5 t-145.5 -104.5t-190 -36.5q-234 0 -354 165.5t-120 502.5zM340 513q0 -96 22.5 -174.5t65.5 -134.5t104 -87t139 -31q154 0 240.5 100t86.5 290q0 189 -85.5 283.5t-228.5 94.5q-70 0 -131 -26t-109 -71t-76 -107.5t-28 -136.5z" />
<glyph unicode="7" d="M176 1363v121h895v-99l-560 -1385h-141l559 1363h-753z" />
<glyph unicode="8" d="M170 346q0 164 85 259.5t240 162.5q-132 55 -209 139t-77 226q0 80 30 148.5t85.5 120t136.5 81t182 29.5q107 0 186.5 -28.5t133.5 -77.5t80 -116t26 -143q0 -132 -80.5 -226t-196.5 -149q137 -60 222 -152.5t85 -243.5q0 -86 -30.5 -159t-89 -127.5t-145.5 -86 t-200 -31.5q-121 0 -208.5 30.5t-144.5 81.5t-84 119t-27 143zM299 368q0 -138 90.5 -211t246.5 -73q150 0 241 73t91 221q0 71 -26 124.5t-71.5 94.5t-108.5 70.5t-140 50.5q-155 -58 -239 -142t-84 -208zM335 1129q0 -64 27.5 -113.5t72.5 -87.5t105.5 -64t124.5 -45 q123 43 199 126t76 199q0 117 -74 187.5t-223 70.5q-78 0 -136 -21.5t-95.5 -59t-57 -87.5t-19.5 -105z" />
<glyph unicode="9" d="M160 995q0 117 32 212.5t91 163t143.5 104.5t190.5 37q235 0 355 -163t120 -495q0 -441 -145 -661.5t-430 -220.5q-93 0 -171.5 15t-128.5 39l28 105q43 -17 107.5 -31t154.5 -14q109 0 191 44t137 124.5t85 196t37 255.5q-54 -78 -150.5 -135.5t-215.5 -57.5 q-90 0 -168.5 30.5t-137.5 92t-92 151t-33 208.5zM293 1009q0 -189 84.5 -284t226.5 -95q69 0 131.5 24.5t111 70t76 108t27.5 137.5q0 215 -88 321.5t-245 106.5q-150 0 -237 -100t-87 -289z" />
<glyph unicode=":" horiz-adv-x="539" d="M166 90q0 52 30 84.5t75 32.5t75 -31.5t30 -85.5q0 -51 -31 -81t-76 -30t-74 30t-29 81zM166 952q0 52 30 84.5t75 32.5t75 -31.5t30 -85.5q0 -51 -31 -81t-76 -30t-74 30t-29 81z" />
<glyph unicode=";" horiz-adv-x="546" d="M97 -297q62 69 98.5 142t44.5 140q-28 7 -53 31.5t-25 73.5q0 56 31 87.5t74 31.5q51 0 78 -34.5t27 -90.5q0 -97 -51.5 -214.5t-160.5 -220.5zM166 952q0 52 30 84.5t75 32.5t75 -31.5t30 -85.5q0 -51 -31 -81t-76 -30t-74 30t-29 81z" />
<glyph unicode="&#x3c;" d="M230 699v109l765 396l48 -105l-686 -342l686 -346l-45 -105z" />
<glyph unicode="=" d="M197 460v116h878v-116h-878zM197 905v115h878v-115h-878z" />
<glyph unicode="&#x3e;" d="M230 411l686 342l-686 346l45 105l768 -396v-109l-766 -393z" />
<glyph unicode="?" horiz-adv-x="1173" d="M107 1320q28 34 71.5 74t101.5 75t133 56.5t170 21.5q107 0 186.5 -31.5t132 -85t78.5 -124.5t26 -151q0 -71 -18 -128t-47.5 -103t-65.5 -84t-73 -70q-45 -39 -81.5 -74.5t-62.5 -77.5t-41 -94.5t-15 -125.5h-122q0 82 12.5 142t41 110.5t72 97t106.5 101.5 q24 21 53 50.5t53.5 67t41 81.5t16.5 96q0 130 -76 207t-232 77q-129 0 -224.5 -55t-158.5 -132zM443 94q0 52 30 83.5t75 31.5t75.5 -30.5t30.5 -84.5q0 -51 -30.5 -82t-75.5 -31t-75 31t-30 82z" />
<glyph unicode="@" horiz-adv-x="2169" d="M160 476q0 236 77 439t213.5 351.5t326 232t415.5 83.5q207 0 366.5 -55.5t269 -159t167 -251.5t57.5 -334q0 -178 -48.5 -318t-125 -236.5t-172 -147t-192.5 -50.5q-51 0 -86 9.5t-58.5 24t-38.5 34t-26 37.5q-15 -12 -41.5 -29.5t-62 -34.5t-79 -29t-88.5 -12 q-80 0 -147.5 26t-117 76.5t-77 125.5t-27.5 175q0 143 38.5 259t105.5 198t153.5 126t184.5 44q75 0 127.5 -19t86.5 -45t52.5 -53t24.5 -40l35 129h97l-155 -796q-2 -6 -2 -25q0 -82 109 -82q80 0 154 47.5t131.5 133.5t91.5 205t34 265q0 181 -56.5 311t-157 215 t-237 126t-292.5 41q-194 0 -359.5 -73t-287.5 -204t-190.5 -315t-68.5 -403q0 -191 55 -346.5t162.5 -265t265.5 -168.5t364 -59q137 0 250 23.5t204.5 60.5t164 82t127.5 90l64 -88q-59 -52 -144 -101.5t-188 -89t-224 -63.5t-252 -24q-219 0 -399 62.5t-307.5 183 t-197 297t-69.5 404.5zM790 433q0 -155 70.5 -229.5t195.5 -74.5q43 0 81.5 11.5t71 29t56 37t36.5 33.5l51 279q2 19 7.5 47.5t11.5 59t10 57.5t4 41q0 48 -16.5 90t-47.5 74.5t-76 51.5t-106 19q-71 0 -134 -33.5t-111.5 -99t-76 -164t-27.5 -229.5z" />
<glyph unicode="A" horiz-adv-x="1244" d="M41 0l505 1512h151l507 -1512h-139l-138 421h-621l-136 -421h-129zM342 540h546l-271 817z" />
<glyph unicode="B" horiz-adv-x="1287" d="M197 0v1512h425q118 0 202.5 -31.5t138.5 -83t80 -120t26 -146.5q0 -74 -21.5 -130.5t-55 -98.5t-73 -69t-74.5 -39q54 -13 107.5 -42.5t96.5 -74.5t71.5 -109.5t28.5 -148.5q0 -187 -121 -303t-379 -116h-452zM329 121h338q185 0 264.5 79t79.5 221q0 148 -102.5 223.5 t-291.5 75.5h-288v-599zM329 839h268q181 0 260 81.5t79 210.5q0 73 -28 123.5t-73 80.5t-104.5 43t-123.5 13h-278v-552z" />
<glyph unicode="C" horiz-adv-x="1338" d="M146 749q0 176 40 321t120.5 248.5t202 160t285.5 56.5q88 0 161 -16.5t128.5 -42t95.5 -52t64 -47.5l-69 -97q-54 45 -146 91.5t-230 46.5q-245 0 -377.5 -168t-132.5 -501q0 -341 133 -496.5t377 -155.5q71 0 130 13t108.5 32.5t88 43t67.5 44.5l62 -97 q-74 -62 -192 -109.5t-272 -47.5q-329 0 -486.5 200t-157.5 573z" />
<glyph unicode="D" horiz-adv-x="1465" d="M197 0v1512h450q328 0 499.5 -197t171.5 -560q0 -183 -46.5 -324t-133.5 -236.5t-211.5 -145t-279.5 -49.5h-450zM333 125h314q244 0 387.5 161t143.5 471q0 325 -143 477.5t-388 152.5h-314v-1262z" />
<glyph unicode="E" horiz-adv-x="1122" d="M197 0v1512h835v-125h-699v-538h547v-125h-547v-599h721v-125h-857z" />
<glyph unicode="F" horiz-adv-x="1122" d="M197 0v1512h841v-125h-705v-538h574v-125h-574v-724h-136z" />
<glyph unicode="G" horiz-adv-x="1401" d="M144 749q0 172 40 318t120.5 252.5t201 167t282.5 60.5q148 0 256.5 -38t198.5 -109l-65 -99q-28 19 -62 41.5t-80.5 41t-107 31.5t-136.5 13q-115 0 -208.5 -42t-159 -127t-102 -213t-36.5 -297q0 -345 134 -501t399 -156q103 0 184 16.5t130 35.5v503h-322v121h447 v-699q-19 -10 -58 -27.5t-97 -33.5t-133 -28.5t-168 -12.5q-333 0 -495.5 197t-162.5 585z" />
<glyph unicode="H" horiz-adv-x="1434" d="M197 0v1512h136v-642h768v642h136v-1512h-136v744h-768v-744h-136z" />
<glyph unicode="I" horiz-adv-x="530" d="M197 0v1512h136v-1512h-136z" />
<glyph unicode="J" horiz-adv-x="1016" d="M58 66l51 106q9 -4 36 -18t68 -29.5t91.5 -27t106.5 -11.5q73 0 127.5 16.5t89.5 53.5t52 99.5t17 155.5v1101h136v-1118q0 -230 -106.5 -329.5t-296.5 -99.5q-79 0 -143.5 13.5t-113 31.5t-78 34t-37.5 22z" />
<glyph unicode="K" horiz-adv-x="1188" d="M197 0v1512h136v-697l631 697h158l-630 -699l682 -813h-174l-667 792v-792h-136z" />
<glyph unicode="L" horiz-adv-x="1113" d="M197 0v1512h136v-1387h699v-125h-835z" />
<glyph unicode="M" horiz-adv-x="1662" d="M197 0v1512h143l491 -899l487 899h147v-1512h-134v1301l-451 -827h-110l-439 801v-1275h-134z" />
<glyph unicode="N" horiz-adv-x="1418" d="M197 0v1512h143l750 -1282v1282h131v-1512h-131l-761 1288v-1288h-132z" />
<glyph unicode="O" horiz-adv-x="1578" d="M148 757q0 176 42 321t124 248.5t202 160.5t276 57q154 0 273 -57t200 -160.5t123 -248.5t42 -321t-42 -321.5t-123 -249.5t-201 -161.5t-274 -57.5q-155 0 -275.5 57.5t-201.5 161.5t-123 249.5t-42 321.5zM290 757q0 -150 30.5 -272t93 -209t156 -134.5t220.5 -47.5 t220.5 47.5t155 134.5t92 209t30.5 272t-30.5 272t-92 208t-155.5 133.5t-220 47.5q-127 0 -220.5 -47.5t-156 -133.5t-93 -208t-30.5 -272z" />
<glyph unicode="P" horiz-adv-x="1216" d="M197 0v1512h423q124 0 214.5 -37t149.5 -99t87 -145.5t28 -181.5q0 -90 -28 -172.5t-89 -146t-156 -101.5t-226 -38h-269v-591h-134zM331 714h264q181 0 275 84t94 251q0 181 -93 261.5t-256 80.5h-284v-677z" />
<glyph unicode="Q" horiz-adv-x="1578" d="M148 757q0 176 42 321t123 248.5t201 160.5t276 57q154 0 274 -57t201 -160.5t123 -248.5t42 -321q0 -273 -100 -469t-289 -273q55 -80 162.5 -135.5t228.5 -72.5l-26 -110q-71 8 -143.5 34t-139.5 64.5t-123 84.5t-95 99q-26 -4 -53 -6.5t-56 -2.5q-168 0 -290.5 61 t-201 168t-117.5 249.5t-39 308.5zM290 757q0 -150 30.5 -272t93 -209t156 -134.5t220.5 -47.5t220.5 47.5t155 134.5t92 209t30.5 272t-30.5 272t-92 208t-155.5 133.5t-220 47.5q-127 0 -220.5 -47.5t-156 -133.5t-93 -208t-30.5 -272z" />
<glyph unicode="R" horiz-adv-x="1240" d="M197 0v1512h398q136 0 227.5 -39t147.5 -102.5t80.5 -141.5t24.5 -158q0 -84 -23.5 -153t-64.5 -120t-95.5 -88t-115.5 -58l387 -652h-157l-370 622h-305v-622h-134zM331 740h258q183 0 268 88t85 237q0 150 -85 238t-276 88h-250v-651z" />
<glyph unicode="S" horiz-adv-x="1199" d="M99 101l55 112q29 -19 72 -40t96.5 -38.5t120 -30t144.5 -12.5q162 0 257.5 70t95.5 218q0 109 -62.5 181.5t-210.5 119.5l-136 43q-182 56 -277.5 154t-95.5 247q0 88 28.5 165.5t88.5 135.5t151 91.5t212 33.5q58 0 118.5 -9t115.5 -23.5t103.5 -35t80.5 -42.5 l-52 -112q-50 33 -147.5 65t-226.5 32q-164 0 -249.5 -74t-85.5 -211q0 -51 13.5 -91.5t46 -74t86.5 -62.5t133 -57l155 -54q187 -64 268.5 -160t81.5 -250q0 -89 -31 -166.5t-92 -134t-154.5 -90.5t-216.5 -34q-93 0 -172.5 15.5t-142.5 37t-107 44t-64 37.5z" />
<glyph unicode="T" horiz-adv-x="1214" d="M76 1385v127h1061v-127h-462v-1385h-135v1385h-464z" />
<glyph unicode="U" horiz-adv-x="1405" d="M176 593v919h136v-888q0 -153 23.5 -256t72 -164.5t121.5 -87.5t175 -26q98 0 171 26t121.5 87.5t73 163t24.5 255.5v890h136v-921q0 -137 -25 -252t-86 -198t-163 -129.5t-257 -46.5q-154 0 -254.5 46.5t-160.5 130.5t-84 199t-24 252z" />
<glyph unicode="V" horiz-adv-x="1223" d="M37 1512h146l434 -1323l428 1323h139l-505 -1512h-129z" />
<glyph unicode="W" horiz-adv-x="1650" d="M33 1512h139l273 -1309l314 1272h133l306 -1270l284 1307h137l-344 -1512h-150l-302 1258l-316 -1258h-148z" />
<glyph unicode="X" horiz-adv-x="1285" d="M71 0l497 802l-426 710h157l348 -596l368 596h148l-436 -706l484 -806h-160l-408 686l-417 -686h-155z" />
<glyph unicode="Y" horiz-adv-x="1169" d="M37 1512h154l394 -722l402 722h146l-486 -847v-665h-136v660z" />
<glyph unicode="Z" horiz-adv-x="1244" d="M107 0v107l847 1280h-825v125h991v-108l-849 -1279h876v-125h-1040z" />
<glyph unicode="[" horiz-adv-x="732" d="M200 -219v1832h440v-115h-313v-1603h313v-114h-440z" />
<glyph unicode="\" horiz-adv-x="891" d="M49 1613h123l671 -1714h-123z" />
<glyph unicode="]" horiz-adv-x="868" d="M103 -105h314v1603h-314v115h441v-1832h-441v114z" />
<glyph unicode="^" d="M176 679l409 805h110l401 -805h-128l-330 675l-335 -675h-127z" />
<glyph unicode="_" horiz-adv-x="958" d="M0 -281h959v-119h-959v119z" />
<glyph unicode="`" horiz-adv-x="1104" d="M286 1490l60 121l473 -254l-47 -93z" />
<glyph unicode="a" horiz-adv-x="1113" d="M109 295q0 154 99.5 252t298.5 98q47 0 97 -4.5t91.5 -8.5t74 -9.5t49.5 -7.5v105q0 142 -79.5 201.5t-228.5 59.5q-109 0 -179 -25t-115 -49l-41 95q41 24 133.5 57t234.5 33q189 0 292.5 -89t103.5 -272v-731h-115l-4 164q-64 -107 -168.5 -148.5t-213.5 -41.5 q-56 0 -115 16t-106.5 53t-78 99.5t-30.5 152.5zM232 297q0 -111 70 -165t186 -54q66 0 126.5 24.5t105.5 64.5t72 91.5t27 104.5v154q-17 4 -48 9t-72 9.5t-88 7.5t-92 3q-160 0 -223.5 -66.5t-63.5 -182.5z" />
<glyph unicode="b" horiz-adv-x="1244" d="M174 0v1613h127v-749q48 97 142.5 163.5t229.5 66.5q109 0 191 -41.5t137 -115t83 -175.5t28 -220q0 -158 -41 -264t-106.5 -171.5t-148.5 -93.5t-164 -28q-129 0 -216 45.5t-143 119.5q0 -39 -1.5 -75t-1.5 -75h-116zM301 277q17 -26 47 -56t71 -56.5t93 -45t110 -18.5 q168 0 263.5 103.5t95.5 337.5q0 94 -19.5 175t-58.5 139t-100 90.5t-145 32.5q-71 0 -135.5 -31.5t-114 -90.5t-78.5 -144t-29 -192v-244z" />
<glyph unicode="c" horiz-adv-x="1010" d="M133 533q0 125 33.5 228t95.5 177.5t150.5 115t200.5 40.5q69 0 120.5 -11.5t90 -28t65.5 -33.5t44 -30l-57 -94q-15 8 -39 22t-56 27t-73 21.5t-88 8.5q-155 0 -255 -108.5t-100 -331.5q0 -115 26.5 -198.5t73 -137.5t112 -80t143.5 -26q98 0 160.5 20.5t101.5 39.5 l47 -94q-30 -24 -106 -54t-212 -30q-228 0 -353 143t-125 414z" />
<glyph unicode="d" horiz-adv-x="1244" d="M135 533q0 117 30 219t86.5 178t138 120t184.5 44q136 0 230.5 -63t143.5 -167v749h127v-1613h-118l-3 150q-62 -73 -152 -119t-219 -46q-84 0 -164.5 27t-144 90.5t-101.5 168.5t-38 262zM267 533q0 -116 24.5 -198.5t72 -134.5t114 -75.5t150.5 -23.5q58 0 109 17 t91 43t71.5 57.5t48.5 56.5v238q0 108 -29 194.5t-78 146.5t-113.5 92.5t-136.5 32.5q-84 0 -145 -35t-100.5 -93.5t-59 -140.5t-19.5 -177z" />
<glyph unicode="e" horiz-adv-x="1171" d="M133 533q0 127 32 231t92.5 177.5t147.5 113t197 39.5q103 0 184.5 -31t139 -101t87.5 -178.5t30 -262.5v-22h-783q11 -191 106.5 -299t293.5 -108q103 0 170 20.5t108 37.5l36 -99q-32 -21 -118 -48t-209 -27q-261 0 -387.5 144.5t-126.5 412.5zM262 602h654 q-13 182 -86 280.5t-230 98.5q-162 0 -241.5 -98t-96.5 -281z" />
<glyph unicode="f" horiz-adv-x="786" d="M74 954v113h210v115q0 99 18 181t62 141t114 91.5t174 32.5q56 0 102 -7.5t69 -14.5l-17 -104q-16 4 -52 8t-73 4q-79 0 -130.5 -19.5t-82.5 -62.5t-43 -110.5t-12 -166.5v-88h329v-113h-329v-954h-129v954h-210z" />
<glyph unicode="g" horiz-adv-x="1165" d="M92 -213q0 90 42 154.5t104 114.5q-41 21 -68.5 62.5t-27.5 103.5q0 71 38.5 128.5t86.5 96.5q-56 45 -88.5 111t-32.5 158q0 99 40 170t103.5 117t140.5 68.5t153 22.5q43 0 77.5 -4t63.5 -9.5t55.5 -9.5t57.5 -4h290v-101h-60q-33 0 -85.5 2t-86.5 8q59 -40 94 -111 t35 -151q0 -99 -41 -168.5t-103.5 -115t-138.5 -66t-150 -20.5q-69 0 -133 12t-123 44q-31 -26 -55 -62.5t-24 -81.5q0 -37 10.5 -62.5t38.5 -43t75.5 -25.5t122.5 -11l237 -5q72 -2 136 -14.5t114.5 -41.5t79.5 -79t29 -124q0 -72 -34.5 -135.5t-105.5 -110.5t-177.5 -75 t-248.5 -28q-88 0 -167.5 14t-139.5 48.5t-97 88t-37 135.5zM213 -187q0 -62 27 -102t72 -64.5t103.5 -34.5t122.5 -10q98 0 179 16.5t136.5 47.5t87 73t31.5 93q0 33 -9 62.5t-33.5 52.5t-68.5 38t-112 17l-213 4q-48 2 -103 3t-106 15q-37 -28 -75.5 -81.5t-38.5 -129.5z M271 718q0 -78 26.5 -130t71 -84.5t100.5 -46.5t116 -14q58 0 115 14t101 46.5t71 84.5t27 130t-27 130.5t-70 85t-100 46t-115 13.5q-60 0 -117 -14.5t-101.5 -47t-71 -85t-26.5 -128.5z" />
<glyph unicode="h" horiz-adv-x="1207" d="M174 0v1613h127v-751q50 103 144.5 167.5t235.5 64.5q175 0 268.5 -101t93.5 -296v-697h-127v679q0 84 -20 142.5t-56 92.5t-84 49.5t-107 15.5q-82 0 -146 -38t-109 -98.5t-69 -137.5t-24 -157v-548h-127z" />
<glyph unicode="i" horiz-adv-x="491" d="M148 1424q0 47 27.5 76t69.5 29q43 0 71 -29t28 -76q0 -50 -28 -78t-71 -28t-70 29.5t-27 76.5zM183 0v1067h127v-1067h-127z" />
<glyph unicode="j" horiz-adv-x="491" d="M-181 -462l15 107q21 -4 50.5 -8.5t57.5 -4.5q78 0 125 23t73 70t34.5 119t8.5 171v1052h127v-1097q0 -228 -84 -340t-273 -112q-31 0 -71 5.5t-63 14.5zM148 1424q0 47 27.5 76t69.5 29q43 0 71 -29t28 -76q0 -50 -28 -78t-71 -28t-70 29.5t-27 76.5z" />
<glyph unicode="k" horiz-adv-x="991" d="M174 0v1613h127v-1026l456 480h152l-464 -480l507 -587h-162l-489 572v-572h-127z" />
<glyph unicode="l" horiz-adv-x="476" d="M174 0v1613h129v-1613h-129z" />
<glyph unicode="m" horiz-adv-x="1851" d="M174 0v1067h119l4 -211q49 103 139.5 170.5t226.5 67.5q111 0 197 -61t110 -188q52 109 147.5 179t230.5 70q168 0 253 -101t85 -296v-697h-127v681q0 168 -61.5 233t-177.5 65q-78 0 -138 -36t-102 -93.5t-64.5 -131t-22.5 -148.5v-570h-127v681q0 168 -61 233t-177 65 q-76 0 -135.5 -39t-103 -100.5t-66 -137.5t-22.5 -154v-548h-127z" />
<glyph unicode="n" horiz-adv-x="1207" d="M174 0v1067h119l4 -211q49 103 145 170.5t231 67.5q187 0 278.5 -101t91.5 -296v-697h-127v679q0 84 -20 142.5t-56 92.5t-84 49.5t-107 15.5q-82 0 -146 -38t-109 -98.5t-69 -137.5t-24 -157v-548h-127z" />
<glyph unicode="o" horiz-adv-x="1248" d="M133 536q0 122 32 224t93.5 176.5t153 116t212.5 41.5q123 0 214 -41.5t152 -116t92.5 -176.5t31.5 -224q0 -123 -32.5 -226t-93.5 -177.5t-153.5 -115.5t-210.5 -41q-121 0 -213.5 41t-154 115.5t-92.5 177.5t-31 226zM265 536q0 -207 88 -325.5t271 -118.5 q184 0 272.5 119.5t88.5 324.5q0 199 -89.5 321t-271.5 122q-181 0 -270 -122t-89 -321z" />
<glyph unicode="p" horiz-adv-x="1244" d="M174 -474v1541h119l4 -211q45 96 140.5 167t237.5 71q109 0 191 -41.5t137 -115t82 -173t27 -216.5q0 -157 -42 -264.5t-108.5 -174t-149.5 -95.5t-167 -29q-105 0 -192.5 36.5t-151.5 87.5v-583h-127zM301 240q19 -18 52.5 -43t75.5 -46.5t91.5 -36.5t101.5 -15 q166 0 262.5 106.5t96.5 342.5q0 92 -19.5 171t-59.5 137t-100 90.5t-144 32.5t-150.5 -38t-111.5 -101.5t-70 -144t-25 -164.5v-291z" />
<glyph unicode="q" horiz-adv-x="1244" d="M133 533q0 117 29 219t85 178t140 120t192 44q73 0 133 -20t105 -52.5t77.5 -73.5t51.5 -82l6 201h121v-1541h-127v618q-19 -24 -51.5 -52t-78.5 -51.5t-105 -39.5t-130 -16q-86 0 -167 28t-143 91.5t-100 168.5t-38 260zM265 533q0 -116 25.5 -198.5t71.5 -134.5 t111 -76.5t142 -24.5q119 0 199.5 55t131.5 119v240q0 95 -27 180t-74 148.5t-112.5 100.5t-143.5 37q-154 0 -239 -118.5t-85 -327.5z" />
<glyph unicode="r" horiz-adv-x="803" d="M181 0v1067h118l4 -246q21 52 56 99.5t82 81.5t105 54.5t129 20.5q24 0 52 -2t36 -6l-10 -117q-17 5 -41 6t-45 1q-78 0 -144.5 -33.5t-114 -94.5t-74 -148.5t-26.5 -196.5v-486h-127z" />
<glyph unicode="s" horiz-adv-x="997" d="M101 74l45 98q54 -30 141 -58t210 -28q79 0 133 14t86.5 40t45 60t12.5 75q0 78 -47.5 127.5t-180.5 73.5l-116 21q-69 12 -124.5 32.5t-97.5 54t-64.5 82t-22.5 119.5q0 148 109.5 228.5t286.5 80.5q109 0 195 -23.5t137 -50.5l-45 -99q-47 24 -115.5 43t-165.5 19 q-148 0 -215.5 -46.5t-67.5 -136.5q0 -41 12.5 -71t39 -52.5t73 -38.5t115.5 -29l117 -22q65 -13 120 -35.5t95 -58t62.5 -84t22.5 -114.5q0 -148 -104.5 -233.5t-293.5 -85.5q-134 0 -241.5 32.5t-156.5 65.5z" />
<glyph unicode="t" horiz-adv-x="844" d="M74 954v113h221v314l126 34v-348h326v-113h-326v-621q0 -74 15.5 -118.5t45 -70t74 -34.5t100.5 -9q66 0 101 9l13 -104q-21 -6 -64 -12.5t-95 -6.5q-172 0 -244 81.5t-72 228.5v657h-221z" />
<glyph unicode="u" horiz-adv-x="1214" d="M174 370v697h127v-680q0 -84 19.5 -141t55 -91t83.5 -49.5t107 -15.5q82 0 146 37t109 97t69 136.5t24 158.5v548h127v-1067h-118l-5 207q-52 -103 -145.5 -168t-241.5 -65q-357 0 -357 396z" />
<glyph unicode="v" horiz-adv-x="1040" d="M47 1067h140l338 -938l333 938h133l-402 -1067h-137z" />
<glyph unicode="w" horiz-adv-x="1470" d="M47 1067h136l262 -925l230 892h131l230 -892l261 925h127l-320 -1067h-138l-229 878l-230 -878h-137z" />
<glyph unicode="x" horiz-adv-x="1022" d="M54 0l379 554l-349 513h146l279 -418l281 418h135l-346 -501l389 -566h-149l-320 468l-308 -468h-137z" />
<glyph unicode="y" horiz-adv-x="1053" d="M47 1067h142l340 -872l347 872h130l-643 -1541h-125l222 525z" />
<glyph unicode="z" horiz-adv-x="1036" d="M121 0v88l638 880h-630v109h789v-90l-641 -880h648v-107h-804z" />
<glyph unicode="{" horiz-adv-x="724" d="M125 632v127q43 9 73 31.5t48.5 52.5t25.5 66.5t7 75.5v269q0 164 81 261.5t274 97.5v-109q-133 0 -181.5 -66t-48.5 -211v-248q0 -97 -42 -171.5t-108 -108.5q66 -30 108 -98t42 -180v-255q0 -136 47.5 -206.5t182.5 -70.5v-108q-103 0 -171.5 27.5t-109.5 77.5 t-57.5 119t-16.5 153v250q0 76 -34 141.5t-120 82.5z" />
<glyph unicode="|" horiz-adv-x="537" d="M209 -474v2087h120v-2087h-120z" />
<glyph unicode="}" horiz-adv-x="724" d="M90 -111q136 0 183 70.5t47 206.5v255q0 111 41 178.5t110 97.5q-69 35 -110 110t-41 172v248q0 144 -48 210.5t-182 66.5v109q194 0 274.5 -97.5t80.5 -261.5v-269q0 -39 7.5 -75.5t26 -66.5t47 -52.5t71.5 -31.5v-127q-86 -17 -119 -82.5t-33 -141.5v-250 q0 -84 -16 -153t-57 -119t-110 -77.5t-172 -27.5v108z" />
<glyph unicode="~" d="M103 858q28 28 66 59t82 57t94.5 42t103.5 16q76 0 136 -28t110 -58q39 -24 81.5 -44t91.5 -20q76 0 126.5 31t104.5 80l69 -77q-58 -62 -131 -105t-173 -43q-75 0 -135 27.5t-109 58.5q-39 24 -80 44t-95 20q-69 0 -139 -40.5t-134 -103.5z" />
<glyph unicode="&#xa1;" horiz-adv-x="601" d="M195 979q0 51 30.5 82t75.5 31t75 -31t30 -82q0 -54 -30 -84.5t-75 -30.5t-75.5 31.5t-30.5 83.5zM234 -439v1086h129v-1086h-129z" />
<glyph unicode="&#xa2;" d="M224 740q0 123 33 220.5t92 168.5t141 113t179 53v217h101v-213q57 -2 108 -13t91 -26t69 -30t44 -28l-52 -94q-13 8 -39.5 20.5t-61 26t-76.5 22.5t-83 9v-893q92 2 158.5 25.5t103.5 40.5l45 -90q-30 -19 -110.5 -50.5t-196.5 -37.5v-209h-101v211q-99 8 -181 49 t-141 111t-91 170t-32 227zM351 740q0 -114 24.5 -193t68.5 -130.5t102 -79t123 -38.5v883q-64 -10 -122.5 -39t-102.5 -83t-68.5 -132.5t-24.5 -187.5z" />
<glyph unicode="&#xa3;" d="M185 768v112h168q-7 56 -13.5 118t-6.5 98q0 93 27 173.5t84 140t143 93.5t205 34q69 0 126.5 -14.5t104 -35t78.5 -44t50 -41.5l-69 -93q-13 13 -40 31.5t-64.5 36.5t-84 31.5t-99.5 13.5q-88 0 -150.5 -26t-101.5 -71t-57.5 -104.5t-18.5 -126.5q0 -43 6 -104t12 -110 h382v-112h-363q10 -56 16 -128t6 -115q0 -76 -18.5 -139.5t-44 -115t-54 -90t-47.5 -61.5h749v-119h-895v101q21 26 51.5 67t58.5 95.5t47.5 122.5t19.5 150q0 55 -6 117.5t-14 114.5h-187z" />
<glyph unicode="&#xa4;" d="M138 316l176 174q-76 101 -76 245t82 252l-182 185l71 73l183 -189q105 80 244 79q144 0 246 -75l183 185l72 -71l-183 -185q82 -101 82 -252q0 -144 -77 -242l176 -179l-68 -71l-179 178q-105 -86 -254 -85q-152 0 -251 83l-176 -176zM351 737q0 -135 78 -214.5 t207 -79.5q132 0 209.5 79.5t77.5 214.5q0 131 -77.5 213t-209.5 82q-129 0 -207 -82t-78 -213z" />
<glyph unicode="&#xa5;" d="M94 1512h156l388 -730l403 730h145l-444 -768h337v-110h-380v-219h380v-109h-380v-306h-129v306h-365v109h365v219h-365v110h320z" />
<glyph unicode="&#xa6;" horiz-adv-x="537" d="M209 232h120v-706h-120v706zM209 909v704h120v-704h-120z" />
<glyph unicode="&#xa7;" horiz-adv-x="1201" d="M189 716q0 86 39 167t114 145q-55 49 -80.5 108.5t-25.5 141.5q0 86 31.5 153t86 114t128.5 71.5t158 24.5q67 0 122 -11t97 -24.5t72 -30t50 -28.5l-45 -96q-17 9 -45.5 23t-63.5 27t-79 21.5t-96 8.5q-62 0 -115 -13.5t-94 -44t-63.5 -76t-22.5 -109.5q0 -168 199 -247 l188 -75q136 -54 204.5 -131.5t68.5 -206.5q0 -90 -40.5 -167.5t-110.5 -138.5q50 -43 78 -102.5t28 -150.5q0 -77 -28 -144t-79.5 -115t-126.5 -75.5t-168 -27.5q-69 0 -124.5 11t-99 26.5t-73.5 31t-45 24.5l47 97q39 -21 112 -50.5t183 -29.5q58 0 109.5 15.5t89 46.5 t60.5 78t23 114q0 84 -49.5 140t-142.5 92l-198 80q-56 21 -105 50t-87 70t-59.5 93.5t-21.5 119.5zM303 733q0 -90 55 -147t165 -100l158 -65q29 -10 52.5 -22t44.5 -25q19 14 41 38.5t40.5 54.5t31 67.5t12.5 80.5q0 91 -57.5 149.5t-161.5 99.5l-167 67q-52 21 -89 43 q-47 -36 -86 -101t-39 -140z" />
<glyph unicode="&#xa8;" horiz-adv-x="1059" d="M215 1377q0 49 29 78t72 29t71 -29t28 -78q0 -50 -28 -79.5t-71 -29.5t-72 29.5t-29 79.5zM645 1377q0 49 28 78t71 29q44 0 72.5 -29t28.5 -78q0 -50 -28.5 -79.5t-72.5 -29.5q-43 0 -71 29.5t-28 79.5z" />
<glyph unicode="&#xa9;" horiz-adv-x="1769" d="M103 759q0 170 58 314t161.5 249.5t247.5 165t318 59.5q170 0 314 -59.5t247.5 -165t161 -249.5t57.5 -314q0 -172 -57.5 -317t-162 -249.5t-248.5 -162.5t-314 -58q-172 0 -315 58t-247.5 162.5t-162.5 249.5t-58 317zM211 757q0 -148 50.5 -274t140.5 -217.5t214 -143 t270 -51.5q144 0 268 51.5t214 143t140.5 217.5t50.5 274t-50.5 274t-140.5 218.5t-213 144t-267 51.5q-146 0 -269.5 -51.5t-214 -144t-142 -218.5t-51.5 -274zM550 755q0 90 26 165t72.5 130.5t114.5 86.5t151 31q53 0 96.5 -9.5t74.5 -23t49.5 -25t24.5 -18.5l-41 -75 q-17 11 -70 33.5t-134 22.5q-119 0 -187.5 -81t-68.5 -237q0 -162 68 -239t185 -77q91 0 142 18.5t67 26.5l33 -71q-6 -7 -24.5 -17.5t-50 -21.5t-74.5 -19.5t-97 -8.5q-174 0 -265.5 108t-91.5 301z" />
<glyph unicode="&#xaa;" horiz-adv-x="773" d="M119 1071q0 103 71.5 155t201.5 52q19 0 42.5 -1.5t46 -4t41 -3.5t26.5 -3v45q0 82 -44 118t-134 36q-60 0 -109.5 -13.5t-77.5 -29.5l-29 72q29 17 90.5 35t135.5 18q138 0 201.5 -62.5t63.5 -191.5v-411h-83l-8 75q-34 -39 -94 -66t-120 -27q-96 0 -158.5 48.5 t-62.5 158.5zM127 671v86h518v-86h-518zM215 1073q0 -69 36.5 -98t101.5 -29q39 0 73 11t62.5 29t44 44t15.5 56v104q-4 0 -19.5 2t-38 3t-48 3t-46.5 2q-84 0 -132.5 -30.5t-48.5 -96.5z" />
<glyph unicode="&#xab;" horiz-adv-x="1008" d="M123 538l247 414h129l-239 -414l239 -415h-129zM510 538l247 414h129l-239 -414l239 -415h-129z" />
<glyph unicode="&#xac;" d="M215 860v112h841v-516h-116v404h-725z" />
<glyph unicode="&#xad;" horiz-adv-x="907" d="M144 542v123h617v-123h-617z" />
<glyph unicode="&#xae;" horiz-adv-x="1769" d="M103 759q0 170 58 314t161.5 249.5t247.5 165t318 59.5q170 0 314 -59.5t247.5 -165t161 -249.5t57.5 -314q0 -172 -57.5 -317t-162 -249.5t-248.5 -162.5t-314 -58q-172 0 -315 58t-247.5 162.5t-162.5 249.5t-58 317zM211 757q0 -146 50.5 -272t140.5 -217.5t214 -144 t270 -52.5q144 0 268 52.5t214 145t140.5 217.5t50.5 271t-50.5 272t-140.5 218.5t-213 145t-267 52.5q-146 0 -269.5 -52.5t-214 -145t-142 -218.5t-51.5 -272zM624 355v802h268q74 0 126.5 -19.5t85.5 -53t48.5 -76t15.5 -90.5q0 -93 -47.5 -145.5t-116.5 -75.5l196 -342 h-112l-185 318h-176v-318h-103zM727 763h163q82 0 128.5 42t46.5 111t-39 110t-129 41h-170v-304z" />
<glyph unicode="&#xaf;" horiz-adv-x="1085" d="M238 1320v114h611v-114h-611z" />
<glyph unicode="&#xb0;" horiz-adv-x="855" d="M140 1196q0 58 21.5 108t60 89t91 60.5t115.5 21.5q64 0 116.5 -20.5t90.5 -57t59.5 -88t21.5 -111.5t-22.5 -112t-61.5 -88.5t-91.5 -58t-112.5 -21.5q-129 0 -208.5 77.5t-79.5 200.5zM238 1196q0 -86 54 -138t138 -52q80 0 133.5 51t53.5 141q0 82 -54 135.5 t-135 53.5q-84 0 -137 -54.5t-53 -136.5z" />
<glyph unicode="&#xb1;" d="M162 0v114h948v-114h-948zM162 744v116h414v422h121v-422h413v-116h-413v-422h-121v422h-414z" />
<glyph unicode="&#xb2;" horiz-adv-x="911" d="M160 1377q12 18 35.5 42t58 44.5t79.5 34.5t102 14q129 0 199 -63.5t70 -162.5q0 -47 -18.5 -87t-48.5 -74.5t-71 -64.5t-86 -58q-39 -27 -73.5 -49t-60.5 -49.5t-42 -60t-16 -78.5h428v-94h-542v41q0 62 13 110t42 90t76.5 81t115.5 82q76 47 121 92.5t45 114.5 q0 62 -41 99t-118 37t-126.5 -36t-77.5 -66z" />
<glyph unicode="&#xb3;" horiz-adv-x="911" d="M166 1413q37 35 108.5 67t168.5 32q74 0 124 -18.5t81 -47t45.5 -67.5t14.5 -80q0 -78 -40 -126t-94 -72q64 -21 109.5 -69.5t45.5 -134.5q0 -109 -82.5 -176t-244.5 -67q-75 0 -131 9.5t-99 22.5l19 90q35 -11 85.5 -20t113.5 -9q122 0 173.5 42t51.5 110q0 66 -42 107 t-152 41h-120v90h116q86 0 134.5 42t48.5 116q0 62 -45.5 93.5t-121.5 31.5q-84 0 -138.5 -28.5t-79.5 -47.5z" />
<glyph unicode="&#xb4;" horiz-adv-x="1104" d="M286 1357l473 254l60 -121l-488 -226z" />
<glyph unicode="&#xb5;" horiz-adv-x="1207" d="M174 -474v1541h127v-677q0 -82 19.5 -139.5t55 -92.5t83.5 -51.5t107 -16.5q84 0 147 38t106 100t65.5 141.5t22.5 166.5v531h127v-1067h-118l-5 207q-16 -35 -46 -76t-73 -75.5t-102.5 -58t-135.5 -23.5q-90 0 -157.5 40t-97.5 83v-571h-125z" />
<glyph unicode="&#xb6;" horiz-adv-x="1219" d="M114 1112q0 86 28 159t79.5 126.5t125.5 84t170 30.5h494v-1805h-125v1684h-252v-1684h-127v1005q-94 0 -168 29t-123.5 82t-75.5 127t-26 162z" />
<glyph unicode="&#xb7;" horiz-adv-x="539" d="M166 744q0 52 30 84.5t75 32.5t75 -31.5t30 -85.5q0 -51 -31 -81t-76 -30t-74 30t-29 81z" />
<glyph unicode="&#xb8;" horiz-adv-x="1085" d="M306 -480l23 86q36 -10 72 -18.5t89 -8.5q80 0 123 30t43 90q0 105 -159 106q-31 0 -64 -8l43 203h105l-22 -105q109 -8 161 -60t52 -134q0 -103 -74 -158.5t-191 -55.5q-90 0 -140.5 14.5t-60.5 18.5z" />
<glyph unicode="&#xb9;" horiz-adv-x="911" d="M181 1325l279 171h94v-825h-109v701l-219 -129z" />
<glyph unicode="&#xba;" horiz-adv-x="819" d="M101 1204q0 74 21.5 137t62.5 108t98 71.5t125 26.5q148 0 229 -96.5t81 -246.5t-83 -245t-227 -95q-148 0 -227.5 92.5t-79.5 247.5zM111 671v86h599v-86h-599zM205 1204q0 -122 50.5 -188t152.5 -66q103 0 155 66t52 188q0 123 -52 190t-155 67q-96 0 -149.5 -67 t-53.5 -190z" />
<glyph unicode="&#xbb;" horiz-adv-x="1008" d="M123 123l238 415l-238 414h129l247 -414l-247 -415h-129zM510 123l238 415l-238 414h129l247 -414l-247 -415h-129z" />
<glyph unicode="&#xbc;" horiz-adv-x="1968" d="M183 1325l279 171h94v-825h-109v701l-219 -129zM496 0l802 1484h132l-802 -1484h-132zM1176 182v62l342 585h114l-325 -554h254v213h97v-213h138v-93h-138v-178h-97v178h-385z" />
<glyph unicode="&#xbd;" horiz-adv-x="1968" d="M181 1325l279 171h94v-825h-109v701l-219 -129zM492 0l802 1484h132l-802 -1484h-132zM1225 710q12 18 35.5 42t58 44.5t79.5 34.5t102 14q129 0 199 -63.5t70 -162.5q0 -47 -18.5 -87t-48.5 -74.5t-71 -64.5t-86 -58q-39 -27 -73.5 -49t-60.5 -49.5t-42 -60t-16 -78.5 h428v-94h-542v41q0 62 13 110t42 90t76.5 81t115.5 82q76 47 121 92.5t45 114.5q0 62 -41 99t-118 37t-126.5 -36t-77.5 -66z" />
<glyph unicode="&#xbe;" horiz-adv-x="1968" d="M199 1413q37 35 108.5 67t168.5 32q74 0 124 -18.5t81 -47t45.5 -67.5t14.5 -80q0 -78 -40 -126t-94 -72q64 -21 109.5 -69.5t45.5 -134.5q0 -109 -82.5 -176t-244.5 -67q-75 0 -131 9.5t-99 22.5l19 90q35 -11 85.5 -20t113.5 -9q122 0 173.5 42t51.5 110q0 66 -42 107 t-152 41h-120v90h116q86 0 134.5 42t48.5 116q0 62 -45.5 93.5t-121.5 31.5q-84 0 -138.5 -28.5t-79.5 -47.5zM572 0l802 1484h132l-802 -1484h-132zM1240 182v62l342 585h114l-325 -554h254v213h97v-213h138v-93h-138v-178h-97v178h-385z" />
<glyph unicode="&#xbf;" horiz-adv-x="1135" d="M140 -71q0 71 18 128t47 103.5t66 83.5t73 70q46 39 82 74t61.5 77t41 95t15.5 126h123q0 -82 -13.5 -142t-41 -110.5t-71.5 -97t-106 -102.5q-24 -21 -53 -50.5t-54 -66.5t-41 -81t-16 -96q0 -129 75 -206.5t233 -77.5q129 0 224.5 55t157.5 131l77 -78 q-28 -37 -69.5 -77t-101 -73t-135.5 -54.5t-168 -21.5q-107 0 -187 31t-133 84.5t-78.5 125t-25.5 150.5zM492 989q0 52 30 83.5t75 31.5q46 0 76.5 -31.5t30.5 -83.5q0 -51 -30.5 -82t-76.5 -31q-45 0 -75 30t-30 83z" />
<glyph unicode="&#xc0;" horiz-adv-x="1244" d="M41 0l505 1512h151l507 -1512h-139l-138 421h-621l-136 -421h-129zM334 1851l56 125l488 -240l-43 -95zM342 540h546l-271 817z" />
<glyph unicode="&#xc1;" horiz-adv-x="1244" d="M41 0l505 1512h151l507 -1512h-139l-138 421h-621l-136 -421h-129zM342 540h546l-271 817zM345 1736l489 240l55 -125l-501 -210z" />
<glyph unicode="&#xc2;" horiz-adv-x="1244" d="M41 0l505 1512h151l507 -1512h-139l-138 421h-621l-136 -421h-129zM252 1712l305 264h121l305 -264l-71 -73l-295 208l-294 -208zM342 540h546l-271 817z" />
<glyph unicode="&#xc3;" horiz-adv-x="1244" d="M41 0l505 1512h151l507 -1512h-139l-138 421h-621l-136 -421h-129zM244 1666q0 117 52.5 178.5t161.5 61.5q53 0 95 -19.5t78 -44t70.5 -44t74.5 -19.5q101 0 102 124h113q0 -123 -56.5 -181t-160.5 -58q-52 0 -93 19.5t-76 43t-69.5 43t-73.5 19.5q-105 0 -105 -123 h-113zM342 540h546l-271 817z" />
<glyph unicode="&#xc4;" horiz-adv-x="1244" d="M41 0l505 1512h151l507 -1512h-139l-138 421h-621l-136 -421h-129zM300 1793q0 52 30 82.5t73 30.5q45 0 74.5 -30.5t29.5 -82.5q0 -49 -29.5 -80t-74.5 -31q-43 0 -73 31t-30 80zM342 540h546l-271 817zM726 1793q0 52 30 82.5t73 30.5q45 0 75 -30.5t30 -82.5 q0 -49 -30 -80t-75 -31q-43 0 -73 31t-30 80z" />
<glyph unicode="&#xc5;" horiz-adv-x="1244" d="M41 0l490 1471q-66 21 -106 76t-40 130q0 51 18 92t50.5 71.5t74.5 46.5t92 16q102 0 165.5 -60t63.5 -164q0 -76 -39.5 -129.5t-101.5 -76.5l496 -1473h-139l-138 421h-621l-136 -421h-129zM342 540h546l-271 817zM488 1677q0 -60 37 -95t92 -35q58 0 95 34t37 96 t-37 97.5t-95 35.5q-53 0 -91 -34t-38 -99z" />
<glyph unicode="&#xc6;" horiz-adv-x="1816" d="M37 0l798 1512h894v-125h-697v-538h544v-125h-544v-599h718v-125h-851v437h-493l-228 -437h-141zM471 552h428v829z" />
<glyph unicode="&#xc7;" horiz-adv-x="1338" d="M146 749q0 176 40 321t120.5 248.5t202 160t285.5 56.5q88 0 161 -16.5t128.5 -42t95.5 -52t64 -47.5l-69 -97q-54 45 -146 91.5t-230 46.5q-245 0 -377.5 -168t-132.5 -501q0 -341 133 -496.5t377 -155.5q71 0 130 13t108.5 32.5t88 43t67.5 44.5l62 -97 q-74 -62 -192 -109.5t-272 -47.5h-8l-17 -81q110 -8 162 -62.5t52 -131.5q0 -103 -73 -158.5t-192 -55.5q-90 0 -140.5 14.5t-62.5 18.5l22 93q37 -11 73.5 -19.5t90.5 -8.5q76 0 116.5 26t40.5 86q0 47 -34.5 73.5t-113.5 26.5q-17 0 -37 -1t-37 -5l41 194 q-273 33 -400 227t-127 537z" />
<glyph unicode="&#xc8;" horiz-adv-x="1122" d="M197 0v1512h835v-125h-699v-538h547v-125h-547v-599h721v-125h-857zM344 1851l56 125l488 -240l-43 -95z" />
<glyph unicode="&#xc9;" horiz-adv-x="1122" d="M197 0v1512h835v-125h-699v-538h547v-125h-547v-599h721v-125h-857zM367 1736l489 240l55 -125l-501 -210z" />
<glyph unicode="&#xca;" horiz-adv-x="1122" d="M197 0v1512h835v-125h-699v-538h547v-125h-547v-599h721v-125h-857zM269 1712l305 264h121l305 -264l-71 -73l-295 208l-294 -208z" />
<glyph unicode="&#xcb;" horiz-adv-x="1122" d="M197 0v1512h835v-125h-699v-538h547v-125h-547v-599h721v-125h-857zM304 1793q0 52 30 82.5t73 30.5q45 0 74.5 -30.5t29.5 -82.5q0 -49 -29.5 -80t-74.5 -31q-43 0 -73 31t-30 80zM730 1793q0 52 30 82.5t73 30.5q45 0 75 -30.5t30 -82.5q0 -49 -30 -80t-75 -31 q-43 0 -73 31t-30 80z" />
<glyph unicode="&#xcc;" horiz-adv-x="530" d="M6 1851l56 125l488 -240l-43 -95zM197 0v1512h136v-1512h-136z" />
<glyph unicode="&#xcd;" horiz-adv-x="530" d="M-2 1736l489 240l55 -125l-501 -210zM197 0v1512h136v-1512h-136z" />
<glyph unicode="&#xce;" horiz-adv-x="530" d="M-96 1712l305 264h121l305 -264l-71 -73l-295 208l-294 -208zM197 0v1512h136v-1512h-136z" />
<glyph unicode="&#xcf;" horiz-adv-x="530" d="M-47 1793q0 52 30 82.5t73 30.5q45 0 74.5 -30.5t29.5 -82.5q0 -49 -29.5 -80t-74.5 -31q-43 0 -73 31t-30 80zM197 0v1512h136v-1512h-136zM379 1793q0 52 30 82.5t73 30.5q45 0 75 -30.5t30 -82.5q0 -49 -30 -80t-75 -31q-43 0 -73 31t-30 80z" />
<glyph unicode="&#xd0;" horiz-adv-x="1481" d="M47 712v115h166v685h450q330 0 501.5 -197t171.5 -560q0 -183 -47.5 -324t-134.5 -236.5t-212 -145t-279 -49.5h-450v712h-166zM349 125h314q247 0 389 159t142 473q0 325 -143.5 477.5t-387.5 152.5h-314v-560h348v-115h-348v-587z" />
<glyph unicode="&#xd1;" horiz-adv-x="1418" d="M197 0v1512h143l750 -1282v1282h131v-1512h-131l-761 1288v-1288h-132zM345 1666q0 117 52.5 178.5t161.5 61.5q53 0 95 -19.5t78 -44t70.5 -44t74.5 -19.5q101 0 102 124h113q0 -123 -56.5 -181t-160.5 -58q-52 0 -93 19.5t-76 43t-69.5 43t-73.5 19.5q-105 0 -105 -123 h-113z" />
<glyph unicode="&#xd2;" horiz-adv-x="1578" d="M148 757q0 176 42 321t124 248.5t202 160.5t276 57q154 0 273 -57t200 -160.5t123 -248.5t42 -321t-42 -321.5t-123 -249.5t-201 -161.5t-274 -57.5q-155 0 -275.5 57.5t-201.5 161.5t-123 249.5t-42 321.5zM290 757q0 -150 30.5 -272t93 -209t156 -134.5t220.5 -47.5 t220.5 47.5t155 134.5t92 209t30.5 272t-30.5 272t-92 208t-155.5 133.5t-220 47.5q-127 0 -220.5 -47.5t-156 -133.5t-93 -208t-30.5 -272zM541 1851l56 125l488 -240l-43 -95z" />
<glyph unicode="&#xd3;" horiz-adv-x="1578" d="M148 757q0 176 42 321t124 248.5t202 160.5t276 57q154 0 273 -57t200 -160.5t123 -248.5t42 -321t-42 -321.5t-123 -249.5t-201 -161.5t-274 -57.5q-155 0 -275.5 57.5t-201.5 161.5t-123 249.5t-42 321.5zM290 757q0 -150 30.5 -272t93 -209t156 -134.5t220.5 -47.5 t220.5 47.5t155 134.5t92 209t30.5 272t-30.5 272t-92 208t-155.5 133.5t-220 47.5q-127 0 -220.5 -47.5t-156 -133.5t-93 -208t-30.5 -272zM524 1736l489 240l55 -125l-501 -210z" />
<glyph unicode="&#xd4;" horiz-adv-x="1578" d="M148 757q0 176 42 321t124 248.5t202 160.5t276 57q154 0 273 -57t200 -160.5t123 -248.5t42 -321t-42 -321.5t-123 -249.5t-201 -161.5t-274 -57.5q-155 0 -275.5 57.5t-201.5 161.5t-123 249.5t-42 321.5zM290 757q0 -150 30.5 -272t93 -209t156 -134.5t220.5 -47.5 t220.5 47.5t155 134.5t92 209t30.5 272t-30.5 272t-92 208t-155.5 133.5t-220 47.5q-127 0 -220.5 -47.5t-156 -133.5t-93 -208t-30.5 -272zM437 1712l305 264h121l305 -264l-71 -73l-295 208l-294 -208z" />
<glyph unicode="&#xd5;" horiz-adv-x="1578" d="M148 757q0 176 42 321t124 248.5t202 160.5t276 57q154 0 273 -57t200 -160.5t123 -248.5t42 -321t-42 -321.5t-123 -249.5t-201 -161.5t-274 -57.5q-155 0 -275.5 57.5t-201.5 161.5t-123 249.5t-42 321.5zM290 757q0 -150 30.5 -272t93 -209t156 -134.5t220.5 -47.5 t220.5 47.5t155 134.5t92 209t30.5 272t-30.5 272t-92 208t-155.5 133.5t-220 47.5q-127 0 -220.5 -47.5t-156 -133.5t-93 -208t-30.5 -272zM433 1666q0 117 52.5 178.5t161.5 61.5q53 0 95 -19.5t78 -44t70.5 -44t74.5 -19.5q101 0 102 124h113q0 -123 -56.5 -181 t-160.5 -58q-52 0 -93 19.5t-76 43t-69.5 43t-73.5 19.5q-105 0 -105 -123h-113z" />
<glyph unicode="&#xd6;" horiz-adv-x="1578" d="M148 757q0 176 42 321t124 248.5t202 160.5t276 57q154 0 273 -57t200 -160.5t123 -248.5t42 -321t-42 -321.5t-123 -249.5t-201 -161.5t-274 -57.5q-155 0 -275.5 57.5t-201.5 161.5t-123 249.5t-42 321.5zM290 757q0 -150 30.5 -272t93 -209t156 -134.5t220.5 -47.5 t220.5 47.5t155 134.5t92 209t30.5 272t-30.5 272t-92 208t-155.5 133.5t-220 47.5q-127 0 -220.5 -47.5t-156 -133.5t-93 -208t-30.5 -272zM484 1793q0 52 30 82.5t73 30.5q45 0 74.5 -30.5t29.5 -82.5q0 -49 -29.5 -80t-74.5 -31q-43 0 -73 31t-30 80zM910 1793 q0 52 30 82.5t73 30.5q45 0 75 -30.5t30 -82.5q0 -49 -30 -80t-75 -31q-43 0 -73 31t-30 80z" />
<glyph unicode="&#xd7;" d="M243 1069l84 78l309 -341l310 335l84 -74l-318 -338l312 -333l-82 -76l-308 332l-307 -330l-82 76l311 333z" />
<glyph unicode="&#xd8;" horiz-adv-x="1578" d="M148 757q0 176 42 321t123 248.5t201 160.5t276 57q111 0 201.5 -30t165.5 -86l118 185l95 -58l-129 -201q97 -102 143 -255t46 -342q0 -176 -42 -321.5t-123 -249.5t-201 -161.5t-274 -57.5q-216 0 -369 115l-107 -170l-95 60l119 186q-96 102 -143 256t-47 343z M290 757q0 -150 31.5 -273t93.5 -209l673 1043q-58 47 -132 73.5t-166 26.5q-127 0 -220.5 -47.5t-156 -133.5t-93 -208t-30.5 -272zM495 191q116 -97 295 -97q127 0 220.5 47.5t155 134.5t92 209t30.5 272q0 306 -125 478z" />
<glyph unicode="&#xd9;" horiz-adv-x="1405" d="M176 593v919h136v-888q0 -153 23.5 -256t72 -164.5t121.5 -87.5t175 -26q98 0 171 26t121.5 87.5t73 163t24.5 255.5v890h136v-921q0 -137 -25 -252t-86 -198t-163 -129.5t-257 -46.5q-154 0 -254.5 46.5t-160.5 130.5t-84 199t-24 252zM428 1851l56 125l488 -240 l-43 -95z" />
<glyph unicode="&#xda;" horiz-adv-x="1405" d="M176 593v919h136v-888q0 -153 23.5 -256t72 -164.5t121.5 -87.5t175 -26q98 0 171 26t121.5 87.5t73 163t24.5 255.5v890h136v-921q0 -137 -25 -252t-86 -198t-163 -129.5t-257 -46.5q-154 0 -254.5 46.5t-160.5 130.5t-84 199t-24 252zM482 1736l489 240l55 -125 l-501 -210z" />
<glyph unicode="&#xdb;" horiz-adv-x="1405" d="M176 593v919h136v-888q0 -153 23.5 -256t72 -164.5t121.5 -87.5t175 -26q98 0 171 26t121.5 87.5t73 163t24.5 255.5v890h136v-921q0 -137 -25 -252t-86 -198t-163 -129.5t-257 -46.5q-154 0 -254.5 46.5t-160.5 130.5t-84 199t-24 252zM359 1712l305 264h121l305 -264 l-71 -73l-295 208l-294 -208z" />
<glyph unicode="&#xdc;" horiz-adv-x="1405" d="M176 593v919h136v-888q0 -153 23.5 -256t72 -164.5t121.5 -87.5t175 -26q98 0 171 26t121.5 87.5t73 163t24.5 255.5v890h136v-921q0 -137 -25 -252t-86 -198t-163 -129.5t-257 -46.5q-154 0 -254.5 46.5t-160.5 130.5t-84 199t-24 252zM400 1793q0 52 30 82.5t73 30.5 q45 0 74.5 -30.5t29.5 -82.5q0 -49 -29.5 -80t-74.5 -31q-43 0 -73 31t-30 80zM826 1793q0 52 30 82.5t73 30.5q45 0 75 -30.5t30 -82.5q0 -49 -30 -80t-75 -31q-43 0 -73 31t-30 80z" />
<glyph unicode="&#xdd;" horiz-adv-x="1169" d="M37 1512h154l394 -722l402 722h146l-486 -847v-665h-136v660zM386 1736l489 240l55 -125l-501 -210z" />
<glyph unicode="&#xde;" horiz-adv-x="1207" d="M197 0v1512h134v-282h291q109 0 197 -31t150.5 -90.5t96 -145t33.5 -193.5q0 -103 -34.5 -188t-97 -145.5t-153 -93.5t-201.5 -33h-282v-310h-134zM331 430h273q174 0 267 88.5t93 251.5q0 174 -92 257t-259 83h-282v-680z" />
<glyph unicode="&#xdf;" horiz-adv-x="1303" d="M174 0v1094q0 250 103 392t336 142q99 0 175 -26t127 -70t76.5 -104t25.5 -129q0 -90 -37.5 -153.5t-95.5 -123.5q-53 -54 -95 -99t-42 -104q0 -33 15.5 -56t43 -42.5t63.5 -36.5t77 -39q64 -35 112 -68t80 -72t48 -87t16 -112q0 -70 -23.5 -129.5t-71 -105t-117 -72.5 t-163.5 -27q-45 0 -90 6.5t-85.5 17t-72 24t-48.5 25.5l39 97q54 -29 117.5 -44.5t137.5 -15.5q123 0 186.5 60.5t63.5 163.5q0 86 -49.5 140.5t-171.5 112.5q-66 32 -111.5 59t-72.5 56.5t-38.5 61.5t-11.5 75q0 79 45 137t100 112q50 50 88.5 102.5t38.5 127.5 q0 112 -78.5 169t-202.5 57q-172 0 -240 -110.5t-68 -319.5v-1086h-129z" />
<glyph unicode="&#xe0;" horiz-adv-x="1113" d="M109 295q0 154 99.5 252t298.5 98q47 0 97 -4.5t91.5 -8.5t74 -9.5t49.5 -7.5v105q0 142 -79.5 201.5t-228.5 59.5q-109 0 -179 -25t-115 -49l-41 95q41 24 133.5 57t234.5 33q189 0 292.5 -89t103.5 -272v-731h-115l-4 164q-64 -107 -168.5 -148.5t-213.5 -41.5 q-56 0 -115 16t-106.5 53t-78 99.5t-30.5 152.5zM232 297q0 -111 70 -165t186 -54q66 0 126.5 24.5t105.5 64.5t72 91.5t27 104.5v154q-17 4 -48 9t-72 9.5t-88 7.5t-92 3q-160 0 -223.5 -66.5t-63.5 -182.5zM290 1490l60 121l473 -254l-47 -93z" />
<glyph unicode="&#xe1;" horiz-adv-x="1113" d="M109 295q0 154 99.5 252t298.5 98q47 0 97 -4.5t91.5 -8.5t74 -9.5t49.5 -7.5v105q0 142 -79.5 201.5t-228.5 59.5q-109 0 -179 -25t-115 -49l-41 95q41 24 133.5 57t234.5 33q189 0 292.5 -89t103.5 -272v-731h-115l-4 164q-64 -107 -168.5 -148.5t-213.5 -41.5 q-56 0 -115 16t-106.5 53t-78 99.5t-30.5 152.5zM232 297q0 -111 70 -165t186 -54q66 0 126.5 24.5t105.5 64.5t72 91.5t27 104.5v154q-17 4 -48 9t-72 9.5t-88 7.5t-92 3q-160 0 -223.5 -66.5t-63.5 -182.5zM286 1357l473 254l60 -121l-488 -226z" />
<glyph unicode="&#xe2;" horiz-adv-x="1113" d="M109 295q0 154 99.5 252t298.5 98q47 0 97 -4.5t91.5 -8.5t74 -9.5t49.5 -7.5v105q0 142 -79.5 201.5t-228.5 59.5q-109 0 -179 -25t-115 -49l-41 95q41 24 133.5 57t234.5 33q189 0 292.5 -89t103.5 -272v-731h-115l-4 164q-64 -107 -168.5 -148.5t-213.5 -41.5 q-56 0 -115 16t-106.5 53t-78 99.5t-30.5 152.5zM215 1316l290 271h107l290 -271l-73 -69l-271 211l-271 -211zM232 297q0 -111 70 -165t186 -54q66 0 126.5 24.5t105.5 64.5t72 91.5t27 104.5v154q-17 4 -48 9t-72 9.5t-88 7.5t-92 3q-160 0 -223.5 -66.5t-63.5 -182.5z " />
<glyph unicode="&#xe3;" horiz-adv-x="1113" d="M109 295q0 154 99.5 252t298.5 98q47 0 97 -4.5t91.5 -8.5t74 -9.5t49.5 -7.5v105q0 142 -79.5 201.5t-228.5 59.5q-109 0 -179 -25t-115 -49l-41 95q41 24 133.5 57t234.5 33q189 0 292.5 -89t103.5 -272v-731h-115l-4 164q-64 -107 -168.5 -148.5t-213.5 -41.5 q-56 0 -115 16t-106.5 53t-78 99.5t-30.5 152.5zM185 1254q0 111 52.5 174.5t155.5 63.5q54 0 93.5 -19.5t73.5 -44t67 -44t74 -19.5q53 0 74.5 33.5t21.5 91.5h115q0 -117 -53.5 -177.5t-157.5 -60.5q-52 0 -91 19t-74 43t-67.5 43.5t-70.5 19.5q-53 0 -76 -33t-23 -90 h-114zM232 297q0 -111 70 -165t186 -54q66 0 126.5 24.5t105.5 64.5t72 91.5t27 104.5v154q-17 4 -48 9t-72 9.5t-88 7.5t-92 3q-160 0 -223.5 -66.5t-63.5 -182.5z" />
<glyph unicode="&#xe4;" horiz-adv-x="1113" d="M109 295q0 154 99.5 252t298.5 98q47 0 97 -4.5t91.5 -8.5t74 -9.5t49.5 -7.5v105q0 142 -79.5 201.5t-228.5 59.5q-109 0 -179 -25t-115 -49l-41 95q41 24 133.5 57t234.5 33q189 0 292.5 -89t103.5 -272v-731h-115l-4 164q-64 -107 -168.5 -148.5t-213.5 -41.5 q-56 0 -115 16t-106.5 53t-78 99.5t-30.5 152.5zM232 297q0 -111 70 -165t186 -54q66 0 126.5 24.5t105.5 64.5t72 91.5t27 104.5v154q-17 4 -48 9t-72 9.5t-88 7.5t-92 3q-160 0 -223.5 -66.5t-63.5 -182.5zM241 1377q0 49 29 78t72 29t71 -29t28 -78q0 -50 -28 -79.5 t-71 -29.5t-72 29.5t-29 79.5zM671 1377q0 49 28 78t71 29q44 0 72.5 -29t28.5 -78q0 -50 -28.5 -79.5t-72.5 -29.5q-43 0 -71 29.5t-28 79.5z" />
<glyph unicode="&#xe5;" horiz-adv-x="1113" d="M109 295q0 154 99.5 252t298.5 98q47 0 97 -4.5t91.5 -8.5t74 -9.5t49.5 -7.5v105q0 142 -79.5 201.5t-228.5 59.5q-109 0 -179 -25t-115 -49l-41 95q41 24 133.5 57t234.5 33q189 0 292.5 -89t103.5 -272v-731h-115l-4 164q-64 -107 -168.5 -148.5t-213.5 -41.5 q-56 0 -115 16t-106.5 53t-78 99.5t-30.5 152.5zM232 297q0 -111 70 -165t186 -54q66 0 126.5 24.5t105.5 64.5t72 91.5t27 104.5v154q-17 4 -48 9t-72 9.5t-88 7.5t-92 3q-160 0 -223.5 -66.5t-63.5 -182.5zM331 1447q0 103 66.5 162t163.5 59q103 0 164.5 -58t61.5 -161 t-63.5 -162.5t-162.5 -59.5q-103 0 -166.5 58.5t-63.5 161.5zM430 1447q0 -62 36.5 -97.5t92.5 -35.5q58 0 94.5 35.5t36.5 97.5t-36.5 97.5t-94.5 35.5q-54 0 -91.5 -34t-37.5 -99z" />
<glyph unicode="&#xe6;" horiz-adv-x="1853" d="M109 295q0 168 106.5 256.5t303.5 88.5q62 0 145 -6t153 -19v101q0 129 -80.5 197t-217.5 68q-109 0 -187 -26t-115 -48l-41 95q35 26 126.5 58t247.5 32q136 0 223 -59t134 -151q26 39 60.5 77.5t79.5 68.5t103.5 48t129.5 18q232 0 338 -144t106 -414v-37h-782 q4 -91 27.5 -165t71 -128t120 -84t175.5 -30q62 0 108 6.5t79.5 16.5t56 19.5t39.5 15.5l37 -99q-26 -16 -106.5 -45.5t-226.5 -29.5q-103 0 -176.5 25t-125 61.5t-83 80.5t-50.5 83q-16 -37 -48 -81t-82 -81.5t-124.5 -63.5t-177.5 -26q-155 0 -251 83t-96 238zM232 295 q0 -105 66.5 -161t189.5 -56q72 0 131.5 21.5t104 58.5t69 88t24.5 109v156l-44 8t-76 11.5t-90.5 9.5t-87.5 4q-148 0 -217.5 -59t-69.5 -190zM944 602h652q-10 187 -85 283t-231 96q-154 0 -240 -102.5t-96 -276.5z" />
<glyph unicode="&#xe7;" horiz-adv-x="1010" d="M133 533q0 125 33.5 228t95.5 177.5t150.5 115t200.5 40.5q69 0 120.5 -11.5t90 -28t65.5 -33.5t44 -30l-57 -94q-15 8 -39 22t-56 27t-73 21.5t-88 8.5q-155 0 -255 -108.5t-100 -331.5q0 -115 26.5 -198.5t73 -137.5t112 -80t143.5 -26q98 0 160.5 20.5t101.5 39.5 l47 -94q-30 -24 -106 -54t-212 -30h-2l-18 -81q109 -8 161 -60t52 -134q0 -103 -74 -158.5t-190 -55.5q-91 0 -141 14.5t-61 18.5l23 86q37 -10 72 -18.5t90 -8.5q80 0 122.5 30t42.5 90q0 105 -159 106q-30 0 -65 -8l39 190q-181 31 -275.5 171.5t-94.5 374.5z" />
<glyph unicode="&#xe8;" horiz-adv-x="1171" d="M133 533q0 127 32 231t92.5 177.5t147.5 113t197 39.5q103 0 184.5 -31t139 -101t87.5 -178.5t30 -262.5v-22h-783q11 -191 106.5 -299t293.5 -108q103 0 170 20.5t108 37.5l36 -99q-32 -21 -118 -48t-209 -27q-261 0 -387.5 144.5t-126.5 412.5zM262 602h654 q-13 182 -86 280.5t-230 98.5q-162 0 -241.5 -98t-96.5 -281zM366 1490l60 121l473 -254l-47 -93z" />
<glyph unicode="&#xe9;" horiz-adv-x="1171" d="M133 533q0 127 32 231t92.5 177.5t147.5 113t197 39.5q103 0 184.5 -31t139 -101t87.5 -178.5t30 -262.5v-22h-783q11 -191 106.5 -299t293.5 -108q103 0 170 20.5t108 37.5l36 -99q-32 -21 -118 -48t-209 -27q-261 0 -387.5 144.5t-126.5 412.5zM262 602h654 q-13 182 -86 280.5t-230 98.5q-162 0 -241.5 -98t-96.5 -281zM342 1357l473 254l60 -121l-488 -226z" />
<glyph unicode="&#xea;" horiz-adv-x="1171" d="M133 533q0 127 32 231t92.5 177.5t147.5 113t197 39.5q103 0 184.5 -31t139 -101t87.5 -178.5t30 -262.5v-22h-783q11 -191 106.5 -299t293.5 -108q103 0 170 20.5t108 37.5l36 -99q-32 -21 -118 -48t-209 -27q-261 0 -387.5 144.5t-126.5 412.5zM262 602h654 q-13 182 -86 280.5t-230 98.5q-162 0 -241.5 -98t-96.5 -281zM269 1316l290 271h107l290 -271l-73 -69l-271 211l-271 -211z" />
<glyph unicode="&#xeb;" horiz-adv-x="1171" d="M133 533q0 127 32 231t92.5 177.5t147.5 113t197 39.5q103 0 184.5 -31t139 -101t87.5 -178.5t30 -262.5v-22h-783q11 -191 106.5 -299t293.5 -108q103 0 170 20.5t108 37.5l36 -99q-32 -21 -118 -48t-209 -27q-261 0 -387.5 144.5t-126.5 412.5zM262 602h654 q-13 182 -86 280.5t-230 98.5q-162 0 -241.5 -98t-96.5 -281zM297 1377q0 49 29 78t72 29t71 -29t28 -78q0 -50 -28 -79.5t-71 -29.5t-72 29.5t-29 79.5zM727 1377q0 49 28 78t71 29q44 0 72.5 -29t28.5 -78q0 -50 -28.5 -79.5t-72.5 -29.5q-43 0 -71 29.5t-28 79.5z" />
<glyph unicode="&#xec;" horiz-adv-x="491" d="M-15 1490l60 121l473 -254l-47 -93zM181 0v1067h129v-1067h-129z" />
<glyph unicode="&#xed;" horiz-adv-x="491" d="M2 1357l473 254l60 -121l-488 -226zM181 0v1067h129v-1067h-129z" />
<glyph unicode="&#xee;" horiz-adv-x="491" d="M-85 1316l290 271h107l290 -271l-73 -69l-271 211l-271 -211zM181 0v1067h129v-1067h-129z" />
<glyph unicode="&#xef;" horiz-adv-x="491" d="M-69 1377q0 49 29 78t72 29t71 -29t28 -78q0 -50 -28 -79.5t-71 -29.5t-72 29.5t-29 79.5zM181 0v1067h129v-1067h-129zM361 1377q0 49 28 78t71 29q44 0 72.5 -29t28.5 -78q0 -50 -28.5 -79.5t-72.5 -29.5q-43 0 -71 29.5t-28 79.5z" />
<glyph unicode="&#xf0;" horiz-adv-x="1210" d="M138 495q0 116 33.5 209.5t93 158t141.5 98.5t177 34q129 0 213 -47t144 -133q-11 180 -75.5 310.5t-193.5 233.5l-224 -187l-67 75l209 171q-58 38 -124.5 69t-137.5 54l34 102q93 -30 176 -70t142 -83l191 160l66 -78l-175 -138q168 -135 246.5 -333t78.5 -445 q0 -159 -27 -286t-85 -215.5t-148.5 -135.5t-216.5 -47q-238 0 -354.5 140t-116.5 383zM267 492q0 -202 84 -303t258 -101q168 0 250.5 107.5t82.5 309.5q0 82 -22.5 150.5t-67 119t-108 79t-144.5 28.5q-171 0 -252 -107.5t-81 -282.5z" />
<glyph unicode="&#xf1;" horiz-adv-x="1207" d="M174 0v1067h119l4 -211q49 103 145 170.5t231 67.5q187 0 278.5 -101t91.5 -296v-697h-127v679q0 84 -20 142.5t-56 92.5t-84 49.5t-107 15.5q-82 0 -146 -38t-109 -98.5t-69 -137.5t-24 -157v-548h-127zM252 1254q0 111 52.5 174.5t155.5 63.5q54 0 93.5 -19.5t73.5 -44 t67 -44t74 -19.5q53 0 74.5 33.5t21.5 91.5h115q0 -117 -53.5 -177.5t-157.5 -60.5q-52 0 -91 19t-74 43t-67.5 43.5t-70.5 19.5q-53 0 -76 -33t-23 -90h-114z" />
<glyph unicode="&#xf2;" horiz-adv-x="1248" d="M133 536q0 122 32 224t93.5 176.5t153 116t212.5 41.5q123 0 214 -41.5t152 -116t92.5 -176.5t31.5 -224q0 -123 -32.5 -226t-93.5 -177.5t-153.5 -115.5t-210.5 -41q-121 0 -213.5 41t-154 115.5t-92.5 177.5t-31 226zM265 536q0 -207 88 -325.5t271 -118.5 q184 0 272.5 119.5t88.5 324.5q0 199 -89.5 321t-271.5 122q-181 0 -270 -122t-89 -321zM385 1490l60 121l473 -254l-47 -93z" />
<glyph unicode="&#xf3;" horiz-adv-x="1248" d="M133 536q0 122 32 224t93.5 176.5t153 116t212.5 41.5q123 0 214 -41.5t152 -116t92.5 -176.5t31.5 -224q0 -123 -32.5 -226t-93.5 -177.5t-153.5 -115.5t-210.5 -41q-121 0 -213.5 41t-154 115.5t-92.5 177.5t-31 226zM265 536q0 -207 88 -325.5t271 -118.5 q184 0 272.5 119.5t88.5 324.5q0 199 -89.5 321t-271.5 122q-181 0 -270 -122t-89 -321zM364 1357l473 254l60 -121l-488 -226z" />
<glyph unicode="&#xf4;" horiz-adv-x="1248" d="M133 536q0 122 32 224t93.5 176.5t153 116t212.5 41.5q123 0 214 -41.5t152 -116t92.5 -176.5t31.5 -224q0 -123 -32.5 -226t-93.5 -177.5t-153.5 -115.5t-210.5 -41q-121 0 -213.5 41t-154 115.5t-92.5 177.5t-31 226zM265 536q0 -207 88 -325.5t271 -118.5 q184 0 272.5 119.5t88.5 324.5q0 199 -89.5 321t-271.5 122q-181 0 -270 -122t-89 -321zM297 1316l290 271h107l290 -271l-73 -69l-271 211l-271 -211z" />
<glyph unicode="&#xf5;" horiz-adv-x="1248" d="M133 536q0 122 32 224t93.5 176.5t153 116t212.5 41.5q123 0 214 -41.5t152 -116t92.5 -176.5t31.5 -224q0 -123 -32.5 -226t-93.5 -177.5t-153.5 -115.5t-210.5 -41q-121 0 -213.5 41t-154 115.5t-92.5 177.5t-31 226zM265 536q0 -207 88 -325.5t271 -118.5 q184 0 272.5 119.5t88.5 324.5q0 199 -89.5 321t-271.5 122q-181 0 -270 -122t-89 -321zM269 1254q0 111 52.5 174.5t155.5 63.5q54 0 93.5 -19.5t73.5 -44t67 -44t74 -19.5q53 0 74.5 33.5t21.5 91.5h115q0 -117 -53.5 -177.5t-157.5 -60.5q-52 0 -91 19t-74 43t-67.5 43.5 t-70.5 19.5q-53 0 -76 -33t-23 -90h-114z" />
<glyph unicode="&#xf6;" horiz-adv-x="1248" d="M133 536q0 122 32 224t93.5 176.5t153 116t212.5 41.5q123 0 214 -41.5t152 -116t92.5 -176.5t31.5 -224q0 -123 -32.5 -226t-93.5 -177.5t-153.5 -115.5t-210.5 -41q-121 0 -213.5 41t-154 115.5t-92.5 177.5t-31 226zM265 536q0 -207 88 -325.5t271 -118.5 q184 0 272.5 119.5t88.5 324.5q0 199 -89.5 321t-271.5 122q-181 0 -270 -122t-89 -321zM318 1377q0 49 29 78t72 29t71 -29t28 -78q0 -50 -28 -79.5t-71 -29.5t-72 29.5t-29 79.5zM748 1377q0 49 28 78t71 29q44 0 72.5 -29t28.5 -78q0 -50 -28.5 -79.5t-72.5 -29.5 q-43 0 -71 29.5t-28 79.5z" />
<glyph unicode="&#xf7;" d="M183 688v114h907v-114h-907zM531 383q0 50 30 81t75 31q43 0 73.5 -31t30.5 -81q0 -49 -30.5 -80.5t-73.5 -31.5q-45 0 -75 31t-30 81zM531 1099q0 50 30 81t75 31q43 0 73.5 -31t30.5 -81q0 -47 -30.5 -79.5t-73.5 -32.5q-45 0 -75 31t-30 81z" />
<glyph unicode="&#xf8;" horiz-adv-x="1248" d="M133 536q0 122 32 224t93.5 176.5t153 116t212.5 41.5q164 0 277 -77l99 142l82 -55l-106 -152q70 -75 104 -181t34 -235q0 -123 -32.5 -226t-93.5 -177.5t-153.5 -115.5t-210.5 -41q-164 0 -278 75l-92 -133l-84 54l101 145q-69 75 -103.5 182t-34.5 237zM265 536 q0 -200 79 -312l487 694q-82 60 -207 61q-181 0 -270 -121t-89 -322zM415 150q82 -60 209 -60q180 0 268.5 117t92.5 316q0 32 -2 63t-7 61q-18 116 -75 198z" />
<glyph unicode="&#xf9;" horiz-adv-x="1214" d="M174 370v697h127v-680q0 -84 19.5 -141t55 -91t83.5 -49.5t107 -15.5q82 0 146 37t109 97t69 136.5t24 158.5v548h127v-1067h-118l-5 207q-52 -103 -145.5 -168t-241.5 -65q-357 0 -357 396zM325 1490l60 121l473 -254l-47 -93z" />
<glyph unicode="&#xfa;" horiz-adv-x="1214" d="M174 370v697h127v-680q0 -84 19.5 -141t55 -91t83.5 -49.5t107 -15.5q82 0 146 37t109 97t69 136.5t24 158.5v548h127v-1067h-118l-5 207q-52 -103 -145.5 -168t-241.5 -65q-357 0 -357 396zM346 1357l473 254l60 -121l-488 -226z" />
<glyph unicode="&#xfb;" horiz-adv-x="1214" d="M174 370v697h127v-680q0 -84 19.5 -141t55 -91t83.5 -49.5t107 -15.5q82 0 146 37t109 97t69 136.5t24 158.5v548h127v-1067h-118l-5 207q-52 -103 -145.5 -168t-241.5 -65q-357 0 -357 396zM276 1316l290 271h107l290 -271l-73 -69l-271 211l-271 -211z" />
<glyph unicode="&#xfc;" horiz-adv-x="1214" d="M174 370v697h127v-680q0 -84 19.5 -141t55 -91t83.5 -49.5t107 -15.5q82 0 146 37t109 97t69 136.5t24 158.5v548h127v-1067h-118l-5 207q-52 -103 -145.5 -168t-241.5 -65q-357 0 -357 396zM295 1377q0 49 29 78t72 29t71 -29t28 -78q0 -50 -28 -79.5t-71 -29.5 t-72 29.5t-29 79.5zM725 1377q0 49 28 78t71 29q44 0 72.5 -29t28.5 -78q0 -50 -28.5 -79.5t-72.5 -29.5q-43 0 -71 29.5t-28 79.5z" />
<glyph unicode="&#xfd;" horiz-adv-x="1053" d="M47 1067h142l340 -872l347 872h130l-643 -1541h-125l222 525zM323 1357l473 254l60 -121l-488 -226z" />
<glyph unicode="&#xfe;" horiz-adv-x="1244" d="M174 -474v2087h127v-751q48 97 142.5 164.5t231.5 67.5q109 0 191 -41.5t137 -115t82 -173t27 -216.5q0 -157 -42 -264.5t-108.5 -174t-149.5 -95.5t-167 -29q-105 0 -192.5 36.5t-151.5 87.5v-583h-127zM301 240q19 -18 52.5 -43t75.5 -46.5t91.5 -36.5t101.5 -15 q166 0 262.5 106.5t96.5 342.5q0 92 -19.5 171t-59.5 137t-101 90.5t-145 32.5t-149.5 -39t-111.5 -102.5t-70 -144t-24 -166.5v-287z" />
<glyph unicode="&#xff;" horiz-adv-x="1053" d="M47 1067h142l340 -872l347 872h130l-643 -1541h-125l222 525zM225 1377q0 49 29 78t72 29t71 -29t28 -78q0 -50 -28 -79.5t-71 -29.5t-72 29.5t-29 79.5zM655 1377q0 49 28 78t71 29q44 0 72.5 -29t28.5 -78q0 -50 -28.5 -79.5t-72.5 -29.5q-43 0 -71 29.5t-28 79.5z" />
<glyph unicode="&#x152;" horiz-adv-x="1911" d="M146 751q0 174 42 314.5t127 239.5t213 153t299 54h1003v-127h-697v-536h544v-125h-544v-597h718v-127h-1026q-348 0 -513.5 188t-165.5 563zM286 751q0 -318 131 -471t408 -153h175v1260h-169q-280 0 -412.5 -159t-132.5 -477z" />
<glyph unicode="&#x153;" horiz-adv-x="2031" d="M133 536q0 122 32 224t93.5 176.5t153 116t212.5 41.5q168 0 269.5 -73t155.5 -198q56 125 157 198t245 73q103 0 185 -31t139 -101t88 -178.5t31 -262.5v-22h-786q10 -193 105.5 -300t296.5 -107q103 0 170.5 20.5t108.5 37.5l35 -99q-31 -21 -117 -48t-209 -27 q-174 0 -284 67.5t-167 196.5q-56 -122 -162.5 -193t-260.5 -71q-121 0 -213.5 41t-154 115.5t-92.5 177.5t-31 226zM265 536q0 -207 88 -325.5t271 -118.5q187 0 275 118.5t88 325.5q0 199 -90.5 321t-272.5 122q-181 0 -270 -122t-89 -321zM1110 602h655 q-10 182 -83 280.5t-231 98.5q-162 0 -243 -98t-98 -281z" />
<glyph unicode="&#x178;" horiz-adv-x="1169" d="M37 1512h154l394 -722l402 722h146l-486 -847v-665h-136v660zM277 1793q0 52 30 82.5t73 30.5q45 0 74.5 -30.5t29.5 -82.5q0 -49 -29.5 -80t-74.5 -31q-43 0 -73 31t-30 80zM703 1793q0 52 30 82.5t73 30.5q45 0 75 -30.5t30 -82.5q0 -49 -30 -80t-75 -31q-43 0 -73 31 t-30 80z" />
<glyph unicode="&#x2c6;" horiz-adv-x="1085" d="M205 1316l290 271h107l290 -271l-73 -69l-271 211l-271 -211z" />
<glyph unicode="&#x2dc;" horiz-adv-x="1085" d="M170 1254q0 111 52.5 174.5t155.5 63.5q54 0 93.5 -19.5t73.5 -44t67 -44t74 -19.5q53 0 74.5 33.5t21.5 91.5h115q0 -117 -53.5 -177.5t-157.5 -60.5q-52 0 -91 19t-74 43t-67.5 43.5t-70.5 19.5q-53 0 -76 -33t-23 -90h-114z" />
<glyph unicode="&#x2000;" horiz-adv-x="988" />
<glyph unicode="&#x2001;" horiz-adv-x="1976" />
<glyph unicode="&#x2002;" horiz-adv-x="988" />
<glyph unicode="&#x2003;" horiz-adv-x="1976" />
<glyph unicode="&#x2004;" horiz-adv-x="658" />
<glyph unicode="&#x2005;" horiz-adv-x="494" />
<glyph unicode="&#x2006;" horiz-adv-x="329" />
<glyph unicode="&#x2007;" horiz-adv-x="329" />
<glyph unicode="&#x2008;" horiz-adv-x="247" />
<glyph unicode="&#x2009;" horiz-adv-x="395" />
<glyph unicode="&#x200a;" horiz-adv-x="109" />
<glyph unicode="&#x2010;" horiz-adv-x="907" d="M144 542v123h617v-123h-617z" />
<glyph unicode="&#x2011;" horiz-adv-x="907" d="M144 542v123h617v-123h-617z" />
<glyph unicode="&#x2012;" horiz-adv-x="907" d="M144 542v123h617v-123h-617z" />
<glyph unicode="&#x2013;" horiz-adv-x="887" d="M0 548v115h888v-115h-888z" />
<glyph unicode="&#x2014;" horiz-adv-x="1775" d="M0 548v115h1777v-115h-1777z" />
<glyph unicode="&#x2018;" horiz-adv-x="530" d="M158 1192q0 43 12.5 98.5t36 114t56 113t72.5 95.5l69 -50q-24 -32 -44 -70t-35 -76t-25 -75t-12 -64q32 -9 56 -35t24 -69q0 -56 -31 -86t-75 -30q-51 0 -77.5 36.5t-26.5 97.5z" />
<glyph unicode="&#x2019;" horiz-adv-x="530" d="M127 1108q24 32 44 69.5t35.5 76.5t24.5 75t12 64q-33 9 -56 34.5t-23 68.5q0 56 31 86.5t74 30.5q51 0 78 -37t27 -97q0 -43 -12.5 -98.5t-36.5 -113.5t-56.5 -113t-73.5 -96z" />
<glyph unicode="&#x201a;" horiz-adv-x="530" d="M131 -286q24 33 43 70.5t33.5 76t23.5 75t12 64.5q-31 8 -55 36t-24 67q0 56 31 88.5t74 32.5q49 0 77 -37t28 -99q0 -45 -12.5 -101t-37.5 -114t-58.5 -113t-72.5 -95z" />
<glyph unicode="&#x201c;" horiz-adv-x="917" d="M143 1192q0 43 12.5 98.5t36 114t56 113t72.5 95.5l69 -50q-24 -32 -44 -70t-35 -76t-25 -75t-12 -64q32 -9 56 -35t24 -69q0 -56 -31 -86t-75 -30q-51 0 -77.5 36.5t-26.5 97.5zM526 1192q0 43 12.5 98.5t36 114t56 113t72.5 95.5l69 -50q-24 -32 -44 -70t-35 -76 t-25 -75t-12 -64q32 -9 56 -35t24 -69q0 -56 -31 -86t-75 -30q-51 0 -77.5 36.5t-26.5 97.5z" />
<glyph unicode="&#x201d;" horiz-adv-x="917" d="M146 1108q24 32 44 69.5t35.5 76.5t24.5 75t12 64q-33 9 -56 34.5t-23 68.5q0 56 31 86.5t74 30.5q51 0 78 -37t27 -97q0 -43 -12.5 -98.5t-36.5 -113.5t-56.5 -113t-73.5 -96zM533 1108q24 32 44 69.5t35.5 76.5t24.5 75t12 64q-33 9 -56 34.5t-23 68.5q0 56 31 86.5 t74 30.5q51 0 78 -37t27 -97q0 -43 -12.5 -98.5t-36.5 -113.5t-56.5 -113t-73.5 -96z" />
<glyph unicode="&#x201e;" horiz-adv-x="917" d="M131 -286q24 33 43 70.5t33.5 76t23.5 75t12 64.5q-31 8 -55 36t-24 67q0 56 31 88.5t74 32.5q49 0 77 -37t28 -99q0 -45 -12.5 -101t-37.5 -114t-58.5 -113t-72.5 -95zM518 -286q24 33 43 70.5t33.5 76t23.5 75t12 64.5q-31 8 -55 36t-24 67q0 56 31 88.5t74 32.5 q49 0 77 -37t28 -99q0 -45 -12.5 -101t-37.5 -114t-58.5 -113t-72.5 -95z" />
<glyph unicode="&#x2022;" horiz-adv-x="960" d="M187 729q0 60 22.5 114t62.5 93.5t93.5 62.5t116.5 23q60 0 113.5 -23t93.5 -62.5t62.5 -93t22.5 -114.5q0 -62 -22.5 -117.5t-62.5 -94.5t-93.5 -61.5t-113.5 -22.5q-62 0 -116 22.5t-94 61.5t-62.5 94.5t-22.5 117.5z" />
<glyph unicode="&#x2026;" horiz-adv-x="1752" d="M224 92q0 52 30 84.5t75 32.5t75 -31.5t30 -85.5q0 -51 -31 -81t-76 -30t-74 30t-29 81zM773 92q0 52 30 84.5t75 32.5t75 -31.5t30 -85.5q0 -51 -31 -81t-76 -30t-74 30t-29 81zM1319 92q0 52 30 84.5t75 32.5t75 -31.5t30 -85.5q0 -51 -31 -81t-76 -30t-74 30t-29 81z " />
<glyph unicode="&#x202f;" horiz-adv-x="395" />
<glyph unicode="&#x2039;" horiz-adv-x="620" d="M123 538l247 414h129l-239 -414l239 -415h-129z" />
<glyph unicode="&#x203a;" horiz-adv-x="620" d="M123 123l238 415l-238 414h129l247 -414l-247 -415h-129z" />
<glyph unicode="&#x205f;" horiz-adv-x="494" />
<glyph unicode="&#x20ac;" d="M62 523v109h147q-4 54 -4 76.5v42.5v42t4 75h-145v111h160q16 111 56 213.5t110 178.5t170 121t236 45q152 0 252.5 -46t162.5 -102l-64 -94q-19 14 -49.5 35.5t-73.5 41t-98.5 34t-125.5 14.5q-109 0 -189 -38t-132.5 -100.5t-81.5 -142t-38 -160.5h620l-35 -111h-598 q-2 -49 -2 -74.5v-42.5v-45.5t2 -73.5h553l-33 -109h-507q9 -84 35.5 -161.5t78.5 -137.5t128 -96t187 -36q77 0 135 13.5t101 33t73 40.5t50 38l64 -92q-58 -56 -162.5 -103.5t-266.5 -47.5q-133 0 -230.5 38.5t-166.5 109.5t-110 172.5t-56 228.5h-157z" />
<glyph unicode="&#x2122;" horiz-adv-x="1818" d="M82 1413v99h645v-99h-269v-725h-109v725h-267zM901 688v824h116l269 -467l273 467h112v-824h-105v656l-241 -406h-88l-231 398v-648h-105z" />
<glyph unicode="&#xe000;" horiz-adv-x="1063" d="M0 0v1065h1065v-1065h-1065z" />
<glyph unicode="&#xfb01;" d="M74 954v113h210v115q0 99 18 181t61 141t113 91.5t171 32.5q53 0 99 -7.5t69 -14.5l-17 -104q-17 4 -51.5 8t-69.5 4q-77 0 -127.5 -19.5t-81.5 -62.5t-43 -110.5t-12 -166.5v-88h677v-1067h-129v954h-548v-954h-129v954h-210zM927 1424q0 47 27 76t70 29t70.5 -29 t27.5 -76q0 -50 -27.5 -78t-70.5 -28t-70 29.5t-27 76.5z" />
<glyph unicode="&#xfb02;" horiz-adv-x="1278" d="M74 954v113h210v115q0 99 18 181t61 141t113 91.5t171 32.5q53 0 99 -7.5t69 -14.5l-17 -104q-17 4 -51.5 8t-69.5 4q-77 0 -127.5 -19.5t-81.5 -62.5t-43 -110.5t-12 -166.5v-88h329v-113h-329v-954h-129v954h-210zM979 0v1613h127v-1613h-127z" />
</font>
</defs>
</svg>
